<svg width="64" height="64" viewBox="0 0 64 64" fill="none" xmlns="http://www.w3.org/2000/svg">
<g opacity="0.1">
<path fill-rule="evenodd" clip-rule="evenodd" d="M27.9987 52.158L29.5074 53.6667H53.332C56.2775 53.6667 58.6654 51.2789 58.6654 48.3334V45L5.48688 45.5C5.38475 47.2204 5.33203 49.0519 5.33203 51C5.33203 52.4728 6.52594 53.6667 7.9987 53.6667H21.332V52.158H27.9987Z" fill="#785549"/>
<path fill-rule="evenodd" clip-rule="evenodd" d="M27.9987 52.158L29.5074 53.6667H53.332C56.2775 53.6667 58.6654 51.2789 58.6654 48.3334V45L5.48688 45.5C5.38475 47.2204 5.33203 49.0519 5.33203 51C5.33203 52.4728 6.52594 53.6667 7.9987 53.6667H21.332V52.158H27.9987Z" fill="#7E5445"/>
<path d="M5.33203 51C5.33203 52.4728 6.52594 53.6667 7.9987 53.6667H21.332V52.158H27.9987L29.5074 53.6667H53.332C56.2775 53.6667 58.6654 51.2789 58.6654 48.3334V45L5.48688 45.5M5.33203 51C5.33203 49.0519 5.38475 47.2204 5.48688 45.5M5.33203 51L5.48688 45.5" stroke="#785549" stroke-width="2" stroke-linecap="round" stroke-linejoin="round"/>
<path d="M5.33203 51C5.33203 52.4728 6.52594 53.6667 7.9987 53.6667H21.332V52.158H27.9987L29.5074 53.6667H53.332C56.2775 53.6667 58.6654 51.2789 58.6654 48.3334V45L5.48688 45.5M5.33203 51C5.33203 49.0519 5.38475 47.2204 5.48688 45.5M5.33203 51L5.48688 45.5" stroke="#7E5445" stroke-width="2" stroke-linecap="round" stroke-linejoin="round"/>
</g>
<path d="M5.33203 25.666H15.9987C18.2078 25.666 19.9987 23.8752 19.9987 21.666V13.666" stroke="#785549" stroke-width="2" stroke-linecap="round" stroke-linejoin="round"/>
<path d="M5.33203 25.666H15.9987C18.2078 25.666 19.9987 23.8752 19.9987 21.666V13.666" stroke="#7E5445" stroke-width="2" stroke-linecap="round" stroke-linejoin="round"/>
<path d="M58.6654 45.2669H5.33203" stroke="#785549" stroke-width="2" stroke-linecap="round" stroke-linejoin="round"/>
<path d="M58.6654 45.2669H5.33203" stroke="#7E5445" stroke-width="2" stroke-linecap="round" stroke-linejoin="round"/>
<path d="M5.33268 25.6667V17.4379C5.33268 15.0232 4.37345 12.7074 2.66602 11H2.66602" stroke="#785549" stroke-width="2" stroke-linecap="round" stroke-linejoin="round"/>
<path d="M5.33268 25.6667V17.4379C5.33268 15.0232 4.37345 12.7074 2.66602 11H2.66602" stroke="#7E5445" stroke-width="2" stroke-linecap="round" stroke-linejoin="round"/>
<path fill-rule="evenodd" clip-rule="evenodd" d="M27.9987 52.1573L29.5074 53.666H53.332C56.2775 53.666 58.6654 51.2782 58.6654 48.3327V41.666C58.6654 38.7205 56.2775 36.3327 53.332 36.3327H49.332C38.2863 36.3327 29.332 27.3784 29.332 16.3327V16.3327C29.332 14.8599 28.1381 13.666 26.6654 13.666H10.6654C7.71985 13.666 5.33203 16.0538 5.33203 18.9993V50.9994C5.33203 52.4721 6.52594 53.666 7.9987 53.666H21.332V52.1573H27.9987Z" stroke="#785549" stroke-width="2" stroke-linecap="round" stroke-linejoin="round"/>
<path fill-rule="evenodd" clip-rule="evenodd" d="M27.9987 52.1573L29.5074 53.666H53.332C56.2775 53.666 58.6654 51.2782 58.6654 48.3327V41.666C58.6654 38.7205 56.2775 36.3327 53.332 36.3327H49.332C38.2863 36.3327 29.332 27.3784 29.332 16.3327V16.3327C29.332 14.8599 28.1381 13.666 26.6654 13.666H10.6654C7.71985 13.666 5.33203 16.0538 5.33203 18.9993V50.9994C5.33203 52.4721 6.52594 53.666 7.9987 53.666H21.332V52.1573H27.9987Z" stroke="#7E5445" stroke-width="2" stroke-linecap="round" stroke-linejoin="round"/>
</svg>
