<svg width="32" height="33" viewBox="0 0 32 33" fill="none" xmlns="http://www.w3.org/2000/svg">
<path d="M17.2032 3.80052L20.7552 12.1005C20.762 12.1206 20.7745 12.1383 20.7912 12.1515C20.8087 12.1643 20.8295 12.1719 20.8512 12.1735L29.7962 13.0075C30.0519 13.0294 30.2955 13.1265 30.4962 13.2865C30.6469 13.4079 30.7693 13.5607 30.8548 13.7343C30.9403 13.9079 30.9868 14.0981 30.9911 14.2916C30.9954 14.485 30.9573 14.6771 30.8796 14.8543C30.8019 15.0315 30.6864 15.1896 30.5412 15.3175L23.7912 21.2825C23.7751 21.2959 23.7627 21.3131 23.7552 21.3325C23.7493 21.3538 23.7493 21.3762 23.7552 21.3975L25.7322 30.2145C25.79 30.467 25.7727 30.7308 25.6822 30.9735C25.6157 31.1548 25.5099 31.3191 25.3725 31.4548C25.2351 31.5904 25.0694 31.694 24.8873 31.7581C24.7051 31.8223 24.5111 31.8453 24.319 31.8257C24.1269 31.806 23.9415 31.7442 23.7762 31.6445L16.0562 27.0375C16.0377 27.0256 16.0162 27.0192 15.9942 27.0192C15.9722 27.0192 15.9506 27.0256 15.9322 27.0375L8.21216 31.6505C8.0464 31.7486 7.86118 31.8091 7.66951 31.8279C7.47785 31.8467 7.28439 31.8233 7.10274 31.7594C6.92108 31.6954 6.75563 31.5925 6.61802 31.4577C6.4804 31.323 6.37396 31.1598 6.30616 30.9795C6.21567 30.7368 6.19829 30.473 6.25616 30.2205L8.23316 21.4025C8.23897 21.3817 8.23856 21.3596 8.23199 21.339C8.22541 21.3184 8.21296 21.3002 8.19616 21.2865L1.44616 15.3215C1.25249 15.15 1.11341 14.9254 1.04616 14.6755C0.978812 14.4256 0.985278 14.1615 1.06478 13.9152C1.14428 13.6689 1.29342 13.4509 1.49416 13.2875C1.69448 13.1264 1.93808 13.0282 2.19416 13.0055L11.1392 12.1715C11.1608 12.1699 11.1816 12.1623 11.1992 12.1495C11.2158 12.1363 11.2283 12.1186 11.2352 12.0985L14.7872 3.79852C14.888 3.56112 15.0564 3.35863 15.2715 3.21629C15.4865 3.07395 15.7388 2.99805 15.9967 2.99805C16.2546 2.99805 16.5068 3.07395 16.7219 3.21629C16.9369 3.35863 17.1054 3.56112 17.2062 3.79852L17.2032 3.80052ZM19.6522 12.5785L16.1022 4.27752C16.0949 4.25521 16.0809 4.23567 16.0622 4.22152C16.0411 4.21081 16.0178 4.20523 15.9942 4.20523C15.9705 4.20523 15.9472 4.21081 15.9262 4.22152C15.9074 4.23567 15.8935 4.25521 15.8862 4.27752L12.3352 12.5775C12.2424 12.7973 12.0917 12.9877 11.8992 13.1285C11.707 13.2687 11.4801 13.3534 11.2432 13.3735L2.29916 14.2055C2.27537 14.2065 2.25239 14.2145 2.23316 14.2285C2.21646 14.2451 2.20408 14.2656 2.1971 14.288C2.19013 14.3105 2.18878 14.3344 2.19316 14.3575C2.20009 14.3795 2.2133 14.399 2.23116 14.4135L8.98116 20.3785C9.16129 20.5345 9.29529 20.7368 9.36862 20.9635C9.44196 21.1902 9.45183 21.4326 9.39716 21.6645L7.42016 30.4845C7.41688 30.5016 7.41714 30.5192 7.42092 30.5361C7.4247 30.5531 7.43192 30.5691 7.44214 30.5832C7.45236 30.5972 7.46535 30.609 7.48032 30.6179C7.49529 30.6267 7.51192 30.6324 7.52916 30.6345C7.55375 30.6346 7.57781 30.6273 7.59816 30.6135L15.3212 25.9975C15.5234 25.874 15.7557 25.8086 15.9927 25.8086C16.2296 25.8086 16.462 25.874 16.6642 25.9975L24.3872 30.6135C24.4061 30.6287 24.43 30.6365 24.4543 30.6354C24.4786 30.6343 24.5017 30.6244 24.5192 30.6075C24.538 30.5945 24.5529 30.5765 24.5622 30.5555C24.5693 30.5324 24.5693 30.5077 24.5622 30.4845L22.5852 21.6665C22.5307 21.4346 22.5407 21.1922 22.614 20.9656C22.6873 20.7389 22.8212 20.5366 23.0012 20.3805L29.7512 14.4155C29.769 14.401 29.7822 14.3815 29.7892 14.3595C29.7959 14.3363 29.7959 14.3117 29.7892 14.2885C29.783 14.2661 29.7709 14.2457 29.7542 14.2295C29.7355 14.2147 29.7129 14.2057 29.6892 14.2035L20.7442 13.3715C20.5072 13.3514 20.2803 13.2667 20.0882 13.1265C19.8956 12.9857 19.745 12.7953 19.6522 12.5755V12.5785Z" fill="#323233"/>
</svg>
