<svg width="24" height="24" viewBox="0 0 24 24" fill="none" xmlns="http://www.w3.org/2000/svg">
<path d="M9.08984 4L9.08984 7.34889" stroke="#747271" stroke-width="1.5" stroke-linecap="round"/>
<path d="M15.0068 4L15.0068 7.34889" stroke="#747271" stroke-width="1.5" stroke-linecap="round"/>
<path d="M4.35263 17.6839C4.52325 19.1223 5.68256 20.2637 7.12855 20.3472C8.70414 20.4382 10.2955 20.4859 12.0529 20.4859C13.8104 20.4859 15.4017 20.4382 16.9773 20.3472C18.4233 20.2637 19.5826 19.1223 19.7532 17.6839C19.9344 16.1567 20.1059 14.58 20.1059 12.9676C20.1059 11.3552 19.9344 9.77847 19.7532 8.25119C19.5826 6.81288 18.4233 5.67148 16.9773 5.58794C15.4017 5.49691 13.8104 5.44922 12.0529 5.44922C10.2955 5.44922 8.70414 5.49691 7.12855 5.58794C5.68256 5.67148 4.52325 6.81288 4.35263 8.25119C4.17146 9.77847 4 11.3552 4 12.9676C4 14.58 4.17146 16.1567 4.35263 17.6839Z" stroke="#747271" stroke-width="1.5"/>
<path d="M4.38574 11.2207H19.8002" stroke="#747271" stroke-width="1.5"/>
</svg>
