<svg width="33" height="33" viewBox="0 0 33 33" fill="none" xmlns="http://www.w3.org/2000/svg">
<g opacity="0.1">
<path d="M30.25 9.25375V18.865C30.25 22.5775 29.3837 23.7738 26.125 23.9663V14.135C26.125 10.0375 25.08 9.00625 20.9275 9.00625H7.94754C7.56254 9.00625 7.205 9.02 6.875 9.03375C6.91625 5.115 7.98879 4.125 12.0725 4.125H25.0525C29.205 4.125 30.25 5.15625 30.25 9.25375Z" stroke="#785549" stroke-width="1.5" stroke-linecap="round" stroke-linejoin="round"/>
<path d="M30.25 9.25375V18.865C30.25 22.5775 29.3837 23.7738 26.125 23.9663V14.135C26.125 10.0375 25.08 9.00625 20.9275 9.00625H7.94754C7.56254 9.00625 7.205 9.02 6.875 9.03375C6.91625 5.115 7.98879 4.125 12.0725 4.125H25.0525C29.205 4.125 30.25 5.15625 30.25 9.25375Z" stroke="#7E5445" stroke-width="1.5" stroke-linecap="round" stroke-linejoin="round"/>
</g>
<path d="M2.75 17.3379H26.125" stroke="#785549" stroke-width="1.5" stroke-miterlimit="10" stroke-linecap="round" stroke-linejoin="round"/>
<path d="M2.75 17.3379H26.125" stroke="#7E5445" stroke-width="1.5" stroke-miterlimit="10" stroke-linecap="round" stroke-linejoin="round"/>
<path d="M26.125 14.1346V23.9659C26.0838 27.8846 25.0112 28.8746 20.9275 28.8746H7.94754C3.79504 28.8746 2.75 27.8434 2.75 23.7459V14.1346C2.75 10.4221 3.61625 9.22586 6.875 9.03336C7.205 9.01961 7.56254 9.00586 7.94754 9.00586H20.9275C25.08 9.00586 26.125 10.0371 26.125 14.1346Z" stroke="#785549" stroke-width="1.5" stroke-linecap="round" stroke-linejoin="round"/>
<path d="M26.125 14.1346V23.9659C26.0838 27.8846 25.0112 28.8746 20.9275 28.8746H7.94754C3.79504 28.8746 2.75 27.8434 2.75 23.7459V14.1346C2.75 10.4221 3.61625 9.22586 6.875 9.03336C7.205 9.01961 7.56254 9.00586 7.94754 9.00586H20.9275C25.08 9.00586 26.125 10.0371 26.125 14.1346Z" stroke="#7E5445" stroke-width="1.5" stroke-linecap="round" stroke-linejoin="round"/>
<path d="M30.25 9.25375V18.865C30.25 22.5775 29.3837 23.7738 26.125 23.9663V14.135C26.125 10.0375 25.08 9.00625 20.9275 9.00625H7.94754C7.56254 9.00625 7.205 9.02 6.875 9.03375C6.91625 5.115 7.98879 4.125 12.0725 4.125H25.0525C29.205 4.125 30.25 5.15625 30.25 9.25375Z" stroke="#785549" stroke-width="1.5" stroke-linecap="round" stroke-linejoin="round"/>
<path d="M30.25 9.25375V18.865C30.25 22.5775 29.3837 23.7738 26.125 23.9663V14.135C26.125 10.0375 25.08 9.00625 20.9275 9.00625H7.94754C7.56254 9.00625 7.205 9.02 6.875 9.03375C6.91625 5.115 7.98879 4.125 12.0725 4.125H25.0525C29.205 4.125 30.25 5.15625 30.25 9.25375Z" stroke="#7E5445" stroke-width="1.5" stroke-linecap="round" stroke-linejoin="round"/>
<path d="M7.21875 24.4883H9.58371" stroke="#785549" stroke-width="1.5" stroke-miterlimit="10" stroke-linecap="round" stroke-linejoin="round"/>
<path d="M7.21875 24.4883H9.58371" stroke="#7E5445" stroke-width="1.5" stroke-miterlimit="10" stroke-linecap="round" stroke-linejoin="round"/>
<path d="M12.5264 24.4883H17.2564" stroke="#785549" stroke-width="1.5" stroke-miterlimit="10" stroke-linecap="round" stroke-linejoin="round"/>
<path d="M12.5264 24.4883H17.2564" stroke="#7E5445" stroke-width="1.5" stroke-miterlimit="10" stroke-linecap="round" stroke-linejoin="round"/>
</svg>
