<svg width="31" height="30" viewBox="0 0 31 30" fill="none" xmlns="http://www.w3.org/2000/svg">
<path fill-rule="evenodd" clip-rule="evenodd" d="M22.8002 26.25H8.20015C6.7439 26.25 5.5964 25.01 5.70765 23.5588L6.6614 11.155C6.7114 10.5025 7.2539 10 7.90765 10H23.0927C23.7464 10 24.2889 10.5025 24.3389 11.1537L25.2927 23.5575C25.4052 25.01 24.2564 26.25 22.8002 26.25V26.25Z" stroke="#785549" stroke-width="1.5" stroke-linecap="round" stroke-linejoin="round"/>
<path fill-rule="evenodd" clip-rule="evenodd" d="M22.8002 26.25H8.20015C6.7439 26.25 5.5964 25.01 5.70765 23.5588L6.6614 11.155C6.7114 10.5025 7.2539 10 7.90765 10H23.0927C23.7464 10 24.2889 10.5025 24.3389 11.1537L25.2927 23.5575C25.4052 25.01 24.2564 26.25 22.8002 26.25V26.25Z" stroke="#7E5445" stroke-width="1.5" stroke-linecap="round" stroke-linejoin="round"/>
<path d="M11.123 12.498C11.123 14.9153 13.0826 16.8749 15.4999 16.8749V16.8749C17.9171 16.8749 19.8767 14.9153 19.8767 12.498" stroke="#785549" stroke-width="1.5" stroke-linecap="round" stroke-linejoin="round"/>
<path d="M11.123 12.498C11.123 14.9153 13.0826 16.8749 15.4999 16.8749V16.8749C17.9171 16.8749 19.8767 14.9153 19.8767 12.498" stroke="#7E5445" stroke-width="1.5" stroke-linecap="round" stroke-linejoin="round"/>
<path d="M10.5 10V8.75V8.75C10.5 5.98875 12.7387 3.75 15.5 3.75V3.75C18.2613 3.75 20.5 5.98875 20.5 8.75V8.75V10" stroke="#785549" stroke-width="1.5" stroke-linecap="round" stroke-linejoin="round"/>
<path d="M10.5 10V8.75V8.75C10.5 5.98875 12.7387 3.75 15.5 3.75V3.75C18.2613 3.75 20.5 5.98875 20.5 8.75V8.75V10" stroke="#7E5445" stroke-width="1.5" stroke-linecap="round" stroke-linejoin="round"/>
</svg>
