<svg width="32" height="32" viewBox="0 0 32 32" fill="none" xmlns="http://www.w3.org/2000/svg">
<path d="M29.3333 18.6615H24.6667C24.2985 18.6615 24 18.363 24 17.9948V13.3281H28.2667" stroke="#785549" stroke-width="1.5" stroke-linecap="round" stroke-linejoin="round"/>
<path d="M29.3333 18.6615H24.6667C24.2985 18.6615 24 18.363 24 17.9948V13.3281H28.2667" stroke="#7E5445" stroke-width="1.5" stroke-linecap="round" stroke-linejoin="round"/>
<path d="M24.7423 24.5857C25.3144 25.1577 25.4855 26.0179 25.176 26.7653C24.8665 27.5127 24.1372 28 23.3283 28C22.5194 28.0001 21.7901 27.5128 21.4805 26.7655C21.1709 26.0182 21.3419 25.1579 21.9139 24.5859L21.914 24.5857C22.695 23.8048 23.9613 23.8048 24.7423 24.5857V24.5857" stroke="#785549" stroke-width="1.5" stroke-linecap="round" stroke-linejoin="round"/>
<path d="M24.7423 24.5857C25.3144 25.1577 25.4855 26.0179 25.176 26.7653C24.8665 27.5127 24.1372 28 23.3283 28C22.5194 28.0001 21.7901 27.5128 21.4805 26.7655C21.1709 26.0182 21.3419 25.1579 21.9139 24.5859L21.914 24.5857C22.695 23.8048 23.9613 23.8048 24.7423 24.5857V24.5857" stroke="#7E5445" stroke-width="1.5" stroke-linecap="round" stroke-linejoin="round"/>
<path d="M10.0753 24.5859C10.6474 25.1579 10.8185 26.0181 10.509 26.7655C10.1995 27.5128 9.47022 28.0002 8.6613 28.0002C7.85237 28.0002 7.12307 27.513 6.81347 26.7657C6.50387 26.0183 6.67494 25.1581 7.2469 24.5861V24.5861L7.2473 24.5856C8.02818 23.8048 9.29421 23.8048 10.0751 24.5856L10.0753 24.5859V24.5859" stroke="#785549" stroke-width="1.5" stroke-linecap="round" stroke-linejoin="round"/>
<path d="M10.0753 24.5859C10.6474 25.1579 10.8185 26.0181 10.509 26.7655C10.1995 27.5128 9.47022 28.0002 8.6613 28.0002C7.85237 28.0002 7.12307 27.513 6.81347 26.7657C6.50387 26.0183 6.67494 25.1581 7.2469 24.5861V24.5861L7.2473 24.5856C8.02818 23.8048 9.29421 23.8048 10.0751 24.5856L10.0753 24.5859V24.5859" stroke="#7E5445" stroke-width="1.5" stroke-linecap="round" stroke-linejoin="round"/>
<path d="M21.4415 25.3327H10.5469" stroke="#785549" stroke-width="1.5" stroke-linecap="round" stroke-linejoin="round"/>
<path d="M21.4415 25.3327H10.5469" stroke="#7E5445" stroke-width="1.5" stroke-linecap="round" stroke-linejoin="round"/>
<path d="M25.2139 25.3336H28C28.7364 25.3336 29.3333 24.7367 29.3333 24.0003V16.5086C29.3333 16.1696 29.2686 15.8336 29.1427 15.5188L27.3364 11.0043C26.9314 9.99193 25.9509 9.32814 24.8605 9.32812H20" stroke="#785549" stroke-width="1.5" stroke-linecap="round" stroke-linejoin="round"/>
<path d="M25.2139 25.3336H28C28.7364 25.3336 29.3333 24.7367 29.3333 24.0003V16.5086C29.3333 16.1696 29.2686 15.8336 29.1427 15.5188L27.3364 11.0043C26.9314 9.99193 25.9509 9.32814 24.8605 9.32812H20" stroke="#7E5445" stroke-width="1.5" stroke-linecap="round" stroke-linejoin="round"/>
<path d="M6.77578 25.3333H4.00033C3.26395 25.3333 2.66699 24.7364 2.66699 24V16" stroke="#785549" stroke-width="1.5" stroke-linecap="round" stroke-linejoin="round"/>
<path d="M6.77578 25.3333H4.00033C3.26395 25.3333 2.66699 24.7364 2.66699 24V16" stroke="#7E5445" stroke-width="1.5" stroke-linecap="round" stroke-linejoin="round"/>
<path d="M2.66699 19.9954H18.667C19.4034 19.9954 20.0003 19.3985 20.0003 18.6621V7.99544C20.0003 7.25906 19.4034 6.66211 18.667 6.66211H16.0003" stroke="#785549" stroke-width="1.5" stroke-linecap="round" stroke-linejoin="round"/>
<path d="M2.66699 19.9954H18.667C19.4034 19.9954 20.0003 19.3985 20.0003 18.6621V7.99544C20.0003 7.25906 19.4034 6.66211 18.667 6.66211H16.0003" stroke="#7E5445" stroke-width="1.5" stroke-linecap="round" stroke-linejoin="round"/>
<path d="M2.66699 7.33398C2.66699 9.51868 5.05099 11.8524 6.41099 13.0065C6.94809 13.4432 7.7179 13.4432 8.25499 13.0065C9.61633 11.8524 12.0003 9.51868 12.0003 7.33398" stroke="#785549" stroke-width="1.5" stroke-linecap="round" stroke-linejoin="round"/>
<path d="M2.66699 7.33398C2.66699 9.51868 5.05099 11.8524 6.41099 13.0065C6.94809 13.4432 7.7179 13.4432 8.25499 13.0065C9.61633 11.8524 12.0003 9.51868 12.0003 7.33398" stroke="#7E5445" stroke-width="1.5" stroke-linecap="round" stroke-linejoin="round"/>
<path d="M7.33499 6.98602C7.52628 6.98676 7.68082 7.14229 7.68033 7.33358C7.67984 7.52486 7.5245 7.6796 7.33322 7.67935C7.14193 7.67911 6.987 7.52398 6.98699 7.33269C6.9865 7.24037 7.02305 7.1517 7.08846 7.08654C7.15387 7.02139 7.24267 6.98518 7.33499 6.98602" stroke="#785549" stroke-width="1.5" stroke-linecap="round" stroke-linejoin="round"/>
<path d="M7.33499 6.98602C7.52628 6.98676 7.68082 7.14229 7.68033 7.33358C7.67984 7.52486 7.5245 7.6796 7.33322 7.67935C7.14193 7.67911 6.987 7.52398 6.98699 7.33269C6.9865 7.24037 7.02305 7.1517 7.08846 7.08654C7.15387 7.02139 7.24267 6.98518 7.33499 6.98602" stroke="#7E5445" stroke-width="1.5" stroke-linecap="round" stroke-linejoin="round"/>
<path d="M2.66699 7.33268V7.33268C2.66699 4.75535 4.75633 2.66602 7.33366 2.66602V2.66602C9.91099 2.66602 12.0003 4.75535 12.0003 7.33268V7.33268" stroke="#785549" stroke-width="1.5" stroke-linecap="round" stroke-linejoin="round"/>
<path d="M2.66699 7.33268V7.33268C2.66699 4.75535 4.75633 2.66602 7.33366 2.66602V2.66602C9.91099 2.66602 12.0003 4.75535 12.0003 7.33268V7.33268" stroke="#7E5445" stroke-width="1.5" stroke-linecap="round" stroke-linejoin="round"/>
</svg>
