<svg width="30" height="30" viewBox="0 0 30 30" fill="none" xmlns="http://www.w3.org/2000/svg">
<path fill-rule="evenodd" clip-rule="evenodd" d="M4.95801 19.5096V10.492C4.95801 9.69422 5.38311 8.95782 6.07377 8.55949L13.8841 4.0507C14.5748 3.65237 15.425 3.65237 16.1156 4.0507L23.9259 8.55949C24.6166 8.95782 25.0417 9.69533 25.0417 10.492V19.5107C25.0417 20.3085 24.6166 21.0449 23.9259 21.4432L16.1156 25.952C15.425 26.3503 14.5748 26.3503 13.8841 25.952L6.07377 21.4432C5.38311 21.0437 4.95801 20.3073 4.95801 19.5096Z" stroke="#77787B" stroke-width="2" stroke-linecap="round" stroke-linejoin="round"/>
<path d="M20.0097 15.9605V12.0955L9.979 6.30469" stroke="#77787B" stroke-width="2" stroke-linecap="round" stroke-linejoin="round"/>
<path d="M11.6971 20.579L8.30518 18.6152" stroke="#77787B" stroke-width="2" stroke-linecap="round" stroke-linejoin="round"/>
<path d="M14.9998 15V26.2469" stroke="#77787B" stroke-width="2" stroke-linecap="round" stroke-linejoin="round"/>
<path d="M5.25684 9.37695L14.9997 15.0015L24.7425 9.37695" stroke="#77787B" stroke-width="2" stroke-linecap="round" stroke-linejoin="round"/>
</svg>
