<svg width="40" height="40" viewBox="0 0 40 40" fill="none" xmlns="http://www.w3.org/2000/svg">
<path d="M20 40C31.0457 40 40 31.0457 40 20C40 8.9543 31.0457 0 20 0C8.9543 0 0 8.9543 0 20C0 31.0457 8.9543 40 20 40Z" fill="white"/>
<path d="M22.438 31.9999V21.0523H26.2708L26.8447 16.7859H22.438V14.0619C22.438 12.8267 22.7959 11.9848 24.6435 11.9848L27 11.9838V8.16793C26.5923 8.11613 25.1935 8 23.5662 8C20.1687 8 17.8427 9.98818 17.8427 13.6396V16.786H14V21.0524H17.8426V32L22.438 31.9999Z" fill="#323233"/>
</svg>
