<svg width="24" height="24" viewBox="0 0 24 24" fill="none" xmlns="http://www.w3.org/2000/svg">
<path d="M20.0033 7.99818H16.0017C15.4492 7.99818 15.0012 7.55028 15.0012 6.99776V2.99609" stroke="#785549" stroke-width="1.5" stroke-linecap="round" stroke-linejoin="round"/>
<path d="M20.0033 7.99818H16.0017C15.4492 7.99818 15.0012 7.55028 15.0012 6.99776V2.99609" stroke="#7E5445" stroke-width="1.5" stroke-linecap="round" stroke-linejoin="round"/>
<path d="M5.9975 7.99818V4.99693C5.9975 3.8919 6.8933 2.99609 7.99833 2.99609H15.1733C15.7039 2.99609 16.2128 3.20708 16.5879 3.58234L19.4171 6.41152C19.7923 6.78666 20.0033 7.29549 20.0033 7.82611V19.0028C20.0033 20.1078 19.1075 21.0036 18.0025 21.0036H7.99833C6.8933 21.0036 5.9975 20.1078 5.9975 19.0028V18.0023" stroke="#785549" stroke-width="1.5" stroke-linecap="round" stroke-linejoin="round"/>
<path d="M5.9975 7.99818V4.99693C5.9975 3.8919 6.8933 2.99609 7.99833 2.99609H15.1733C15.7039 2.99609 16.2128 3.20708 16.5879 3.58234L19.4171 6.41152C19.7923 6.78666 20.0033 7.29549 20.0033 7.82611V19.0028C20.0033 20.1078 19.1075 21.0036 18.0025 21.0036H7.99833C6.8933 21.0036 5.9975 20.1078 5.9975 19.0028V18.0023" stroke="#7E5445" stroke-width="1.5" stroke-linecap="round" stroke-linejoin="round"/>
<path d="M9.56599 14.7495L6.56474 11.248" stroke="#785549" stroke-width="1.5" stroke-linecap="round" stroke-linejoin="round"/>
<path d="M9.56599 14.7495L6.56474 11.248" stroke="#7E5445" stroke-width="1.5" stroke-linecap="round" stroke-linejoin="round"/>
<path d="M6.56474 14.7495L9.56599 11.248" stroke="#785549" stroke-width="1.5" stroke-linecap="round" stroke-linejoin="round"/>
<path d="M6.56474 14.7495L9.56599 11.248" stroke="#7E5445" stroke-width="1.5" stroke-linecap="round" stroke-linejoin="round"/>
<rect x="2.99625" y="7.99805" width="10.0042" height="10.0042" rx="3" stroke="#785549" stroke-width="1.5" stroke-linecap="round" stroke-linejoin="round"/>
<rect x="2.99625" y="7.99805" width="10.0042" height="10.0042" rx="3" stroke="#7E5445" stroke-width="1.5" stroke-linecap="round" stroke-linejoin="round"/>
</svg>
