<svg width="25" height="24" viewBox="0 0 25 24" fill="none" xmlns="http://www.w3.org/2000/svg">
<path d="M12.5 4.25C12.0858 4.25 11.75 4.58579 11.75 5C11.75 5.41421 12.0858 5.75 12.5 5.75V4.25ZM20.5 5.75C20.9142 5.75 21.25 5.41421 21.25 5C21.25 4.58579 20.9142 4.25 20.5 4.25V5.75ZM12.5 18.25C12.0858 18.25 11.75 18.5858 11.75 19C11.75 19.4142 12.0858 19.75 12.5 19.75V18.25ZM20.5 19.75C20.9142 19.75 21.25 19.4142 21.25 19C21.25 18.5858 20.9142 18.25 20.5 18.25V19.75ZM12.5 12.75C12.9142 12.75 13.25 12.4142 13.25 12C13.25 11.5858 12.9142 11.25 12.5 11.25V12.75ZM4.5 11.25C4.08579 11.25 3.75 11.5858 3.75 12C3.75 12.4142 4.08579 12.75 4.5 12.75L4.5 11.25ZM12.5 5.75L20.5 5.75V4.25L12.5 4.25V5.75ZM12.5 19.75H20.5V18.25H12.5V19.75ZM12.5 11.25L4.5 11.25L4.5 12.75L12.5 12.75V11.25ZM3.75 5C3.75 6.51878 4.98122 7.75 6.5 7.75V6.25C5.80964 6.25 5.25 5.69036 5.25 5H3.75ZM6.5 7.75C8.01878 7.75 9.25 6.51878 9.25 5H7.75C7.75 5.69036 7.19036 6.25 6.5 6.25V7.75ZM9.25 5C9.25 3.48122 8.01878 2.25 6.5 2.25V3.75C7.19036 3.75 7.75 4.30964 7.75 5H9.25ZM6.5 2.25C4.98122 2.25 3.75 3.48122 3.75 5H5.25C5.25 4.30964 5.80964 3.75 6.5 3.75V2.25ZM3.75 19C3.75 20.5188 4.98122 21.75 6.5 21.75V20.25C5.80964 20.25 5.25 19.6904 5.25 19H3.75ZM6.5 21.75C8.01878 21.75 9.25 20.5188 9.25 19H7.75C7.75 19.6904 7.19036 20.25 6.5 20.25V21.75ZM9.25 19C9.25 17.4812 8.01878 16.25 6.5 16.25V17.75C7.19036 17.75 7.75 18.3096 7.75 19H9.25ZM6.5 16.25C4.98122 16.25 3.75 17.4812 3.75 19H5.25C5.25 18.3096 5.80964 17.75 6.5 17.75V16.25ZM21.25 12C21.25 10.4812 20.0188 9.25 18.5 9.25V10.75C19.1904 10.75 19.75 11.3096 19.75 12H21.25ZM18.5 9.25C16.9812 9.25 15.75 10.4812 15.75 12H17.25C17.25 11.3096 17.8096 10.75 18.5 10.75V9.25ZM15.75 12C15.75 13.5188 16.9812 14.75 18.5 14.75V13.25C17.8096 13.25 17.25 12.6904 17.25 12H15.75ZM18.5 14.75C20.0188 14.75 21.25 13.5188 21.25 12H19.75C19.75 12.6904 19.1904 13.25 18.5 13.25V14.75Z" fill="#77787B"/>
</svg>
