<svg width="24" height="24" viewBox="0 0 24 24" fill="none" xmlns="http://www.w3.org/2000/svg">
<path d="M12 11.5037V9.4111L13.3823 8.6431C14.0722 8.2599 14.5 7.53283 14.5 6.74372C14.4183 5.43144 13.2929 4.43104 11.9801 4.50372C10.807 4.45505 9.76537 5.248 9.5 6.39165" stroke="#57585A" stroke-width="1.5" stroke-linecap="round" stroke-linejoin="round"/>
<path fill-rule="evenodd" clip-rule="evenodd" d="M17.9999 19.5039H19.2385C20.0153 19.5078 20.7016 18.9988 20.9233 18.2544C21.145 17.5099 20.8491 16.7083 20.1967 16.2866L13.4783 11.9401C12.5785 11.3585 11.4214 11.3585 10.5216 11.9401L3.80315 16.2866C3.15079 16.7083 2.85483 17.5099 3.07656 18.2544C3.29829 18.9988 3.98456 19.5078 4.76135 19.5039H5.99993" stroke="#57585A" stroke-width="1.5" stroke-linecap="round" stroke-linejoin="round"/>
</svg>
