<svg width="31" height="30" viewBox="0 0 31 30" fill="none" xmlns="http://www.w3.org/2000/svg">
<path fill-rule="evenodd" clip-rule="evenodd" d="M15.4923 7.39519C13.243 4.77392 9.49221 4.0688 6.67403 6.4691C3.85585 8.8694 3.45909 12.8826 5.67222 15.7214C7.51229 18.0817 13.081 23.0598 14.9061 24.671C15.1103 24.8513 15.2124 24.9414 15.3315 24.9768C15.4354 25.0077 15.5492 25.0077 15.6531 24.9768C15.7722 24.9414 15.8743 24.8513 16.0785 24.671C17.9036 23.0598 23.4723 18.0817 25.3124 15.7214C27.5255 12.8826 27.1772 8.84415 24.3106 6.4691C21.4439 4.09405 17.7416 4.77392 15.4923 7.39519Z" stroke="#785549" stroke-width="1.5" stroke-linecap="round" stroke-linejoin="round"/>
<path fill-rule="evenodd" clip-rule="evenodd" d="M15.4923 7.39519C13.243 4.77392 9.49221 4.0688 6.67403 6.4691C3.85585 8.8694 3.45909 12.8826 5.67222 15.7214C7.51229 18.0817 13.081 23.0598 14.9061 24.671C15.1103 24.8513 15.2124 24.9414 15.3315 24.9768C15.4354 25.0077 15.5492 25.0077 15.6531 24.9768C15.7722 24.9414 15.8743 24.8513 16.0785 24.671C17.9036 23.0598 23.4723 18.0817 25.3124 15.7214C27.5255 12.8826 27.1772 8.84415 24.3106 6.4691C21.4439 4.09405 17.7416 4.77392 15.4923 7.39519Z" stroke="#7E5445" stroke-width="1.5" stroke-linecap="round" stroke-linejoin="round"/>
</svg>
