<svg width="40" height="40" viewBox="0 0 40 40" fill="none" xmlns="http://www.w3.org/2000/svg">
<path d="M20 40C31.0457 40 40 31.0457 40 20C40 8.9543 31.0457 0 20 0C8.9543 0 0 8.9543 0 20C0 31.0457 8.9543 40 20 40Z" fill="white"/>
<path d="M16.1676 20C16.1676 17.7909 17.8834 15.9997 20.0005 15.9997C22.1176 15.9997 23.8343 17.7909 23.8343 20C23.8343 22.2091 22.1176 24.0003 20.0005 24.0003C17.8834 24.0003 16.1676 22.2091 16.1676 20ZM14.0951 20C14.0951 23.4032 16.7389 26.1619 20.0005 26.1619C23.262 26.1619 25.9058 23.4032 25.9058 20C25.9058 16.5968 23.262 13.8381 20.0005 13.8381C16.7389 13.8381 14.0951 16.5968 14.0951 20ZM24.7595 13.5938C24.7594 13.8786 24.8403 14.1571 24.9918 14.3939C25.1434 14.6308 25.3588 14.8155 25.611 14.9246C25.8631 15.0337 26.1406 15.0623 26.4083 15.0068C26.676 14.9514 26.922 14.8143 27.115 14.613C27.3081 14.4117 27.4397 14.1552 27.493 13.8759C27.5464 13.5966 27.5192 13.307 27.4148 13.0439C27.3105 12.7807 27.1337 12.5557 26.9068 12.3974C26.6799 12.2391 26.4131 12.1545 26.1401 12.1544H26.1396C25.7737 12.1546 25.4229 12.3063 25.1641 12.5762C24.9054 12.846 24.7599 13.2121 24.7595 13.5938ZM15.3543 29.7677C14.233 29.7144 13.6236 29.5196 13.2186 29.3549C12.6817 29.1368 12.2986 28.877 11.8958 28.4573C11.493 28.0376 11.2436 27.6382 11.0355 27.078C10.8777 26.6556 10.6909 26.0195 10.6399 24.8495C10.5842 23.5846 10.573 23.2047 10.573 20.0001C10.573 16.7955 10.5851 16.4166 10.6399 15.1507C10.691 13.9807 10.8791 13.3459 11.0355 12.9222C11.2446 12.362 11.4935 11.9622 11.8958 11.5419C12.298 11.1216 12.6807 10.8615 13.2186 10.6443C13.6234 10.4796 14.233 10.2847 15.3543 10.2315C16.5665 10.1733 16.9307 10.1617 20.0005 10.1617C23.0703 10.1617 23.4348 10.1743 24.648 10.2315C25.7693 10.2848 26.3777 10.4811 26.7837 10.6443C27.3206 10.8615 27.7037 11.1222 28.1065 11.5419C28.5093 11.9616 28.7577 12.362 28.9668 12.9222C29.1246 13.3446 29.3114 13.9807 29.3624 15.1507C29.4181 16.4166 29.4293 16.7955 29.4293 20.0001C29.4293 23.2047 29.4181 23.5836 29.3624 24.8495C29.3113 26.0195 29.1236 26.6554 28.9668 27.078C28.7577 27.6382 28.5088 28.038 28.1065 28.4573C27.7043 28.8766 27.3206 29.1368 26.7837 29.3549C26.3789 29.5196 25.7693 29.7145 24.648 29.7677C23.4358 29.8259 23.0716 29.8375 20.0005 29.8375C16.9293 29.8375 16.5661 29.8259 15.3543 29.7677ZM15.2591 8.07267C14.0348 8.13085 13.1982 8.33341 12.4676 8.63005C11.7109 8.93638 11.0704 9.34736 10.4303 10.0142C9.79026 10.681 9.3974 11.3504 9.10382 12.1399C8.81953 12.9027 8.6254 13.7752 8.56965 15.0526C8.51297 16.3321 8.5 16.7412 8.5 20C8.5 23.2588 8.51297 23.6679 8.56965 24.9474C8.6254 26.2249 8.81953 27.0973 9.10382 27.8601C9.3974 28.6491 9.79035 29.3193 10.4303 29.9858C11.0703 30.6524 11.7109 31.0628 12.4676 31.37C13.1995 31.6666 14.0348 31.8692 15.2591 31.9273C16.4859 31.9855 16.8773 32 20.0005 32C23.1236 32 23.5156 31.9865 24.7419 31.9273C25.9663 31.8692 26.8023 31.6666 27.5334 31.37C28.2895 31.0628 28.9305 30.6526 29.5706 29.9858C30.2107 29.319 30.6027 28.6491 30.8971 27.8601C31.1814 27.0973 31.3764 26.2248 31.4313 24.9474C31.487 23.6669 31.5 23.2588 31.5 20C31.5 16.7412 31.487 16.3321 31.4313 15.0526C31.3755 13.7751 31.1814 12.9022 30.8971 12.1399C30.6027 11.3509 30.2096 10.682 29.5706 10.0142C28.9315 9.3463 28.2895 8.93638 27.5343 8.63005C26.8023 8.33341 25.9662 8.12989 24.7428 8.07267C23.5166 8.0145 23.1245 8 20.0014 8C16.8782 8 16.4859 8.01354 15.2591 8.07267Z" fill="#323233"/>
</svg>
