<svg width="20" height="20" viewBox="0 0 20 20" fill="none" xmlns="http://www.w3.org/2000/svg">
<path d="M5.83341 18.3337V9.16699M1.66675 10.8337V16.667C1.66675 17.5875 2.41294 18.3337 3.33341 18.3337H14.522C15.7559 18.3337 16.8053 17.4334 16.9929 16.2138L17.8903 10.3805C18.1233 8.86607 16.9516 7.50033 15.4194 7.50033H12.5001C12.0398 7.50033 11.6667 7.12723 11.6667 6.66699V3.72186C11.6667 2.58699 10.7468 1.66699 9.61188 1.66699C9.3412 1.66699 9.0959 1.8264 8.98596 2.07376L6.05336 8.67211C5.91961 8.97305 5.62118 9.16699 5.29185 9.16699H3.33341C2.41294 9.16699 1.66675 9.91318 1.66675 10.8337Z" stroke="#77787B" stroke-width="1.5" stroke-linecap="round" stroke-linejoin="round"/>
</svg>
