<svg width="20" height="20" viewBox="0 0 20 20" fill="none" xmlns="http://www.w3.org/2000/svg">
<path fill-rule="evenodd" clip-rule="evenodd" d="M6.66602 3.33142L7.7498 1.97669C7.9082 1.77911 8.14747 1.66406 8.4009 1.66406H11.6014C11.8548 1.66406 12.0941 1.77911 12.2525 1.97669L13.3355 3.33142V3.33142V4.1651C13.3355 4.6253 12.962 4.99878 12.5018 4.99878H7.4997C7.0395 4.99878 6.66602 4.6253 6.66602 4.1651V3.33142V3.33142Z" stroke="#48A51D" stroke-width="1.5" stroke-linecap="round" stroke-linejoin="round"/>
<path d="M6.66578 3.33203H4.99842C4.0772 3.33203 3.33105 4.07818 3.33105 4.99939V15.8372C3.33105 16.7585 4.0772 17.5046 4.99842 17.5046H15.0026C15.9238 17.5046 16.6699 16.7585 16.6699 15.8372V4.99939C16.6699 4.07818 15.9238 3.33203 15.0026 3.33203H13.3352" stroke="#48A51D" stroke-width="1.5" stroke-linecap="round" stroke-linejoin="round"/>
<path d="M11.6677 10.418L9.58353 12.5022L8.33301 11.2516" stroke="#48A51D" stroke-width="1.5" stroke-linecap="round" stroke-linejoin="round"/>
</svg>
