<svg width="32" height="33" viewBox="0 0 32 33" fill="none" xmlns="http://www.w3.org/2000/svg">
<path d="M13.0145 17.5977C13.0701 17.6684 13.1292 17.7383 13.191 17.8046C13.5303 18.2174 13.954 18.5525 14.4336 18.7873C14.9131 19.0221 15.4374 19.1511 15.9709 19.1657C16.5045 19.1512 17.0289 19.0222 17.5086 18.7874C17.9883 18.5526 18.4122 18.2175 18.7517 17.8046C19.6099 16.7869 20.1273 15.5247 20.2307 14.1963L20.236 14.1539C20.2502 14.0613 20.2825 13.9724 20.331 13.8923C20.3795 13.8123 20.4433 13.7426 20.5187 13.6872C20.5941 13.6318 20.6797 13.5919 20.7705 13.5697C20.8613 13.5475 20.9556 13.5435 21.0479 13.5578C21.0479 13.5578 21.7381 13.6869 21.7381 12.5098C21.7381 11.4707 21.6825 11.4733 21.5792 11.4768C21.4989 11.4768 21.4124 11.4813 21.3145 11.4768C21.1499 11.4806 20.9891 11.4272 20.8595 11.3256C20.7298 11.2241 20.6392 11.0806 20.6032 10.9197C20.5235 10.4493 20.3153 10.0102 20.0017 9.65111C19.6881 9.29206 19.2814 9.02709 18.8267 8.88561C18.1092 9.05099 15.2702 9.6108 13.2219 8.49118C13.0654 8.78565 12.8937 9.0717 12.7074 9.34814L12.6765 9.39855C12.2347 10.0512 11.7381 10.6648 11.1921 11.2328C11.125 11.3119 11.0416 11.3754 10.9476 11.4189C10.8535 11.4625 10.7512 11.4849 10.6476 11.4848C10.5929 11.4848 10.4781 11.4795 10.3714 11.4742C10.3334 11.4742 10.2964 11.4742 10.2055 11.4742C10.2055 11.4742 10.2055 11.5777 10.2055 12.5151C10.2055 13.5967 10.7861 13.5764 10.8823 13.5658L10.9371 13.5578C11.1251 13.5403 11.3123 13.5983 11.4577 13.719C11.6032 13.8397 11.6949 14.0133 11.7128 14.2016C11.8129 15.4364 12.2654 16.6162 13.0162 17.6003L13.0145 17.5977ZM20.2705 18.1787C20.3119 18.3971 20.4284 18.8181 20.5652 19.2656C20.7108 19.7826 20.8907 20.2893 21.1035 20.7823C21.3495 21.0818 21.6487 21.3331 21.9861 21.5234C22.6136 21.9233 23.2726 22.2711 23.9567 22.5635C24.1147 22.6262 24.2938 22.6961 24.4959 22.7695C24.7209 22.8535 24.8992 22.9163 25.0448 22.9641C30.5764 24.8062 30.9956 31.2145 30.9982 31.2322C31.0116 31.4214 30.9493 31.6083 30.8252 31.7516C30.7011 31.8949 30.5252 31.9829 30.3363 31.9963C30.1475 32.0096 29.961 31.9473 29.818 31.8229C29.675 31.6985 29.5872 31.5223 29.5739 31.333C29.5739 31.3179 29.2147 25.8498 24.5983 24.3181C24.3547 24.2367 24.157 24.1677 24.0052 24.112C23.8287 24.0492 23.6372 23.9723 23.4157 23.8821C22.6502 23.5546 21.9124 23.1657 21.2094 22.7191C21.0974 22.6457 20.9879 22.5714 20.8812 22.4945C16.2039 27.1189 11.636 22.9941 11.1171 22.4945C11.0118 22.5699 10.9032 22.6445 10.7914 22.7182C10.0889 23.165 9.35098 23.5533 8.58517 23.8794C8.36454 23.9678 8.17039 24.0474 7.99653 24.1111C7.84563 24.1668 7.64353 24.2358 7.40349 24.3172C2.78532 25.8551 2.42614 31.3197 2.42526 31.3321C2.41877 31.4258 2.39391 31.5173 2.35211 31.6013C2.31031 31.6854 2.25239 31.7603 2.18165 31.8219C2.11092 31.8835 2.02876 31.9306 1.93988 31.9603C1.851 31.9901 1.75714 32.002 1.66366 31.9954C1.57013 31.9888 1.47882 31.9638 1.39494 31.9218C1.31106 31.8798 1.23626 31.8217 1.1748 31.7507C1.11333 31.6798 1.06642 31.5974 1.03673 31.5082C1.00705 31.4191 0.995168 31.325 1.00177 31.2313C1.00177 31.2127 1.42361 24.8045 6.95517 22.9632C7.10079 22.9154 7.27906 22.8518 7.50409 22.7686C7.70619 22.6952 7.88622 22.6254 8.04331 22.5617C8.72736 22.2694 9.38643 21.9215 10.0139 21.5217C10.3513 21.3313 10.6505 21.0801 10.8965 20.7805C11.1088 20.2873 11.2886 19.7806 11.4348 19.2638C11.5583 18.8579 11.666 18.4767 11.7145 18.245C11.0209 17.2644 10.5611 16.1374 10.3705 14.9507C9.69007 14.8233 8.77402 14.3139 8.77402 12.5125C8.77402 12.2065 8.78461 11.9394 8.80226 11.705L8.79785 11.6891C8.79785 11.6723 7.24552 5.5568 11.0774 4.16213C11.3623 4.02466 11.6058 3.81413 11.7834 3.55191C12.096 3.09798 12.5384 2.74957 13.0524 2.55255C14.0014 2.18644 15.0096 1.99847 16.0265 1.99805C17.4775 2.07421 18.8998 2.43287 20.214 3.054C20.462 3.12068 20.7203 3.14048 20.9756 3.11237C21.4197 3.07976 21.8661 3.11555 22.2993 3.21849C22.4511 3.24409 22.595 3.30424 22.72 3.39432C22.8449 3.4844 22.9476 3.60201 23.02 3.7381C23.0925 3.87418 23.1328 4.02511 23.1379 4.17927C23.143 4.33343 23.1128 4.48671 23.0495 4.62731C22.9445 4.96246 22.7821 5.27669 22.5694 5.55591L22.5509 5.57979C22.5844 5.647 22.6179 5.72218 22.6523 5.80177C23.427 7.52044 23.5829 9.45511 23.0936 11.2761C23.1454 11.6867 23.1687 12.1004 23.1633 12.5142C23.1633 14.3157 22.2473 14.8251 21.5633 14.9542C21.3761 16.1129 20.9332 17.2151 20.2669 18.1805L20.2705 18.1787ZM19.8654 21.4916C19.601 20.9045 19.3798 20.2989 19.2035 19.6795C19.177 19.591 19.1506 19.5079 19.1267 19.4221C18.2586 20.1761 17.1504 20.5947 16.0016 20.6025C14.8529 20.6103 13.7391 20.2068 12.8609 19.4646C12.8406 19.5353 12.8177 19.6079 12.7956 19.6804C12.6192 20.3001 12.3977 20.9061 12.1328 21.4934C12.6235 21.9585 16.2003 25.0928 19.861 21.4934L19.8654 21.4916ZM21.9163 10.0459C22.0561 8.79303 21.8609 7.52543 21.3506 6.37308C21.3003 6.25811 21.2536 6.16083 21.2147 6.083C21.1214 6.01259 21.0479 5.91908 21.0015 5.81164C20.9551 5.7042 20.9374 5.58652 20.95 5.47013C20.9481 5.35492 20.9747 5.24104 21.0276 5.1387C21.0804 5.03637 21.1577 4.94877 21.2527 4.88378C21.2807 4.86355 21.3102 4.84552 21.3409 4.82984C21.3898 4.80273 21.442 4.78222 21.4963 4.76881L21.438 4.72548C21.423 4.72548 21.416 4.71664 21.4195 4.71133C21.4592 4.6565 21.4998 4.59813 21.5369 4.53445C21.3604 4.52296 21.1839 4.52915 21.0074 4.53445C20.5476 4.58255 20.0829 4.52415 19.6492 4.36377C18.5054 3.81892 17.2677 3.49975 16.0035 3.42367C15.1502 3.43134 14.3054 3.59467 13.5104 3.90566C13.2564 4.03088 13.0397 4.2209 12.8821 4.45663C12.5532 4.92857 12.0928 5.2928 11.5583 5.50374C9.81274 6.13961 9.78185 8.52655 9.9557 10.0468C10.0342 10.0415 10.1172 10.0388 10.2028 10.0388L10.3502 10.0442C10.7643 9.59224 11.1451 9.11075 11.4895 8.60349L11.5239 8.55662C11.8179 8.13598 12.0553 7.67836 12.2299 7.19556C12.2585 7.1062 12.3043 7.02336 12.3649 6.95178C12.4254 6.88021 12.4994 6.82129 12.5827 6.77841C12.666 6.73554 12.7569 6.70954 12.8502 6.7019C12.9435 6.69426 13.0374 6.70514 13.1266 6.73391C13.2312 6.76714 13.3267 6.82437 13.4054 6.90106C15.0354 8.34879 18.3139 7.54577 18.6263 7.46883H18.6316L18.6581 7.46176C18.7704 7.43566 18.8872 7.43718 18.9988 7.46618C19.6481 7.62195 20.2476 7.93986 20.7414 8.3903C21.2352 8.84074 21.6072 9.40908 21.8228 10.0424H21.911L21.9163 10.0459ZM21.6022 4.75113C21.5478 4.74654 21.4939 4.73826 21.4407 4.72636L21.4989 4.7697C21.5328 4.76072 21.5673 4.75451 21.6022 4.75113Z" fill="#323233"/>
</svg>
