<svg width="80" height="80" viewBox="0 0 80 80" fill="none" xmlns="http://www.w3.org/2000/svg">
<path d="M39.9997 43.3327C45.5225 43.3327 49.9997 38.8555 49.9997 33.3327C49.9997 27.8098 45.5225 23.3327 39.9997 23.3327C34.4768 23.3327 29.9997 27.8098 29.9997 33.3327C29.9997 38.8555 34.4768 43.3327 39.9997 43.3327Z" fill="#785549"/>
<path d="M39.9997 43.3327C45.5225 43.3327 49.9997 38.8555 49.9997 33.3327C49.9997 27.8098 45.5225 23.3327 39.9997 23.3327C34.4768 23.3327 29.9997 27.8098 29.9997 33.3327C29.9997 38.8555 34.4768 43.3327 39.9997 43.3327Z" fill="#7E5445"/>
<path d="M39.9997 73.3327C53.333 59.9994 66.6663 48.0603 66.6663 33.3327C66.6663 18.6051 54.7273 6.66602 39.9997 6.66602C25.2721 6.66602 13.333 18.6051 13.333 33.3327C13.333 48.0603 26.6663 59.9994 39.9997 73.3327Z" fill="#785549"/>
<path d="M39.9997 73.3327C53.333 59.9994 66.6663 48.0603 66.6663 33.3327C66.6663 18.6051 54.7273 6.66602 39.9997 6.66602C25.2721 6.66602 13.333 18.6051 13.333 33.3327C13.333 48.0603 26.6663 59.9994 39.9997 73.3327Z" fill="#7E5445"/>
<path d="M39.9997 43.3327C45.5225 43.3327 49.9997 38.8555 49.9997 33.3327C49.9997 27.8098 45.5225 23.3327 39.9997 23.3327C34.4768 23.3327 29.9997 27.8098 29.9997 33.3327C29.9997 38.8555 34.4768 43.3327 39.9997 43.3327Z" stroke="#785549" stroke-width="1.5" stroke-linecap="round" stroke-linejoin="round"/>
<path d="M39.9997 43.3327C45.5225 43.3327 49.9997 38.8555 49.9997 33.3327C49.9997 27.8098 45.5225 23.3327 39.9997 23.3327C34.4768 23.3327 29.9997 27.8098 29.9997 33.3327C29.9997 38.8555 34.4768 43.3327 39.9997 43.3327Z" stroke="#7E5445" stroke-width="1.5" stroke-linecap="round" stroke-linejoin="round"/>
<path d="M39.9997 73.3327C53.333 59.9994 66.6663 48.0603 66.6663 33.3327C66.6663 18.6051 54.7273 6.66602 39.9997 6.66602C25.2721 6.66602 13.333 18.6051 13.333 33.3327C13.333 48.0603 26.6663 59.9994 39.9997 73.3327Z" stroke="#785549" stroke-width="1.5" stroke-linecap="round" stroke-linejoin="round"/>
<path d="M39.9997 73.3327C53.333 59.9994 66.6663 48.0603 66.6663 33.3327C66.6663 18.6051 54.7273 6.66602 39.9997 6.66602C25.2721 6.66602 13.333 18.6051 13.333 33.3327C13.333 48.0603 26.6663 59.9994 39.9997 73.3327Z" stroke="#7E5445" stroke-width="1.5" stroke-linecap="round" stroke-linejoin="round"/>
<circle cx="40.0003" cy="31.9993" r="13.3333" fill="white"/>
</svg>
