<svg width="20" height="15" viewBox="0 0 20 15" fill="none" xmlns="http://www.w3.org/2000/svg">
<g clip-path="url(#clip0_1774_95329)">
<path d="M12.4445 10.771H7.41211V1.68359H12.4445V10.771Z" fill="#6C6BBD"/>
<path d="M19.0548 9.80616V9.58203H18.9967L18.9294 9.73601L18.8625 9.58203H18.804V9.80616H18.8453V9.63718L18.9082 9.78303H18.951L19.0139 9.63678V9.80616H19.0548ZM18.6859 9.80616V9.62028H18.7604V9.58244H18.5703V9.62028H18.6449V9.80616H18.6859Z" fill="#0099DF"/>
<path d="M16.5396 14.7952V14.833H16.5744C16.582 14.833 16.5886 14.8312 16.593 14.8282C16.5977 14.8253 16.6003 14.8201 16.6003 14.8139C16.6003 14.8077 16.5977 14.8029 16.593 14.7999C16.5886 14.7966 16.582 14.7952 16.5744 14.7952H16.5396ZM16.5747 14.7687C16.5926 14.7687 16.6065 14.7728 16.6164 14.7808C16.6263 14.7889 16.631 14.7999 16.631 14.8139C16.631 14.8257 16.6274 14.8352 16.6193 14.8429C16.6117 14.8502 16.6003 14.855 16.586 14.8569L16.6321 14.9101H16.5963L16.5535 14.8572H16.5396V14.9101H16.5096V14.7687H16.5747ZM16.5656 14.9587C16.582 14.9587 16.5974 14.9557 16.6113 14.9495C16.6255 14.9432 16.638 14.9348 16.6486 14.9241C16.6592 14.9135 16.6676 14.901 16.6738 14.8862C16.6797 14.8719 16.6829 14.8565 16.6829 14.84C16.6829 14.8234 16.6797 14.808 16.6738 14.7937C16.6676 14.7793 16.6592 14.7665 16.6486 14.7559C16.638 14.7452 16.6255 14.7367 16.6113 14.7308C16.5974 14.7246 16.582 14.7217 16.5656 14.7217C16.5491 14.7217 16.5334 14.7246 16.5191 14.7308C16.5045 14.7367 16.4917 14.7452 16.4811 14.7559C16.4705 14.7665 16.4621 14.7793 16.4562 14.7937C16.45 14.808 16.4471 14.8234 16.4471 14.84C16.4471 14.8565 16.45 14.8719 16.4562 14.8862C16.4621 14.901 16.4705 14.9135 16.4811 14.9241C16.4917 14.9348 16.5045 14.9432 16.5191 14.9495C16.5334 14.9557 16.5491 14.9587 16.5656 14.9587ZM16.5656 14.6875C16.5871 14.6875 16.6069 14.6915 16.6255 14.6996C16.6445 14.7073 16.6607 14.7184 16.6749 14.7323C16.6888 14.7459 16.6998 14.7621 16.7078 14.7808C16.7159 14.7992 16.7199 14.819 16.7199 14.84C16.7199 14.8609 16.7159 14.8808 16.7078 14.8991C16.6998 14.9175 16.6888 14.9337 16.6749 14.9473C16.6607 14.9613 16.6445 14.9723 16.6255 14.9803C16.6069 14.9884 16.5871 14.9925 16.5656 14.9925C16.5436 14.9925 16.5235 14.9884 16.5045 14.9803C16.4855 14.9723 16.4691 14.9613 16.4551 14.9473C16.4412 14.9337 16.4302 14.9175 16.4222 14.8991C16.4142 14.8808 16.4102 14.8609 16.4102 14.84C16.4102 14.819 16.4142 14.7992 16.4222 14.7808C16.4302 14.7621 16.4412 14.7459 16.4551 14.7323C16.4691 14.7184 16.4855 14.7073 16.5045 14.6996C16.5235 14.6915 16.5436 14.6875 16.5656 14.6875Z" fill="#231F20"/>
<path d="M14.1408 13.3371C14.2077 13.3371 14.3039 13.3499 14.3774 13.379L14.275 13.6935C14.2048 13.6645 14.1346 13.6549 14.0673 13.6549C13.8501 13.6549 13.7415 13.796 13.7415 14.0495V14.9101H13.4091V13.3757H13.7382V13.562C13.8245 13.4271 13.9492 13.3371 14.1408 13.3371ZM12.9129 13.6806H12.3698V14.374C12.3698 14.528 12.4239 14.6308 12.5903 14.6308C12.6766 14.6308 12.7852 14.6018 12.884 14.5441L12.9798 14.8296C12.8745 14.9035 12.7084 14.9487 12.5647 14.9487C12.1716 14.9487 12.0345 14.7366 12.0345 14.3802V13.6806H11.7244V13.3757H12.0345V12.9102H12.3698V13.3757H12.9129V13.6806ZM8.66032 14.008C8.69578 13.7864 8.82959 13.6355 9.06623 13.6355C9.28012 13.6355 9.41761 13.7703 9.45273 14.008H8.66032ZM9.79796 14.1429C9.79468 13.6645 9.50064 13.3371 9.07245 13.3371C8.6252 13.3371 8.31216 13.6645 8.31216 14.1429C8.31216 14.6305 8.63798 14.9483 9.09507 14.9483C9.32509 14.9483 9.53576 14.8906 9.72115 14.7333L9.55804 14.4861C9.43045 14.5889 9.26734 14.6466 9.11413 14.6466C8.90018 14.6466 8.70528 14.5471 8.65738 14.2711H9.79134C9.79467 14.2292 9.79796 14.1877 9.79796 14.1429ZM11.2577 13.7673C11.1653 13.7093 10.9769 13.6355 10.782 13.6355C10.5999 13.6355 10.4913 13.7031 10.4913 13.8155C10.4913 13.918 10.6061 13.9471 10.7498 13.9662L10.9063 13.9885C11.2387 14.0371 11.4398 14.1782 11.4398 14.4478C11.4398 14.74 11.1843 14.9487 10.7436 14.9487C10.4942 14.9487 10.2642 14.8844 10.0821 14.7495L10.2386 14.4894C10.3505 14.5761 10.5169 14.6499 10.7469 14.6499C10.9736 14.6499 11.095 14.5827 11.095 14.4636C11.095 14.3773 11.0087 14.3288 10.8266 14.3034L10.6701 14.281C10.3282 14.2325 10.1428 14.0786 10.1428 13.8283C10.1428 13.5234 10.3922 13.3371 10.7787 13.3371C11.0215 13.3371 11.242 13.3918 11.4015 13.4976L11.2577 13.7673ZM15.3553 13.6542C15.2869 13.6542 15.2236 13.6663 15.1648 13.6902C15.1062 13.7144 15.0554 13.7483 15.0126 13.7916C14.9698 13.835 14.9362 13.8871 14.9117 13.9478C14.8872 14.0084 14.8751 14.0753 14.8751 14.148C14.8751 14.2212 14.8872 14.2877 14.9117 14.3483C14.9362 14.4089 14.9698 14.4611 15.0126 14.5044C15.0554 14.5478 15.1062 14.5816 15.1648 14.6058C15.2236 14.6301 15.2869 14.6418 15.3553 14.6418C15.4236 14.6418 15.4872 14.6301 15.5458 14.6058C15.6046 14.5816 15.6558 14.5478 15.6987 14.5044C15.7421 14.4611 15.7758 14.4089 15.8007 14.3483C15.8252 14.2877 15.8373 14.2212 15.8373 14.148C15.8373 14.0753 15.8252 14.0084 15.8007 13.9478C15.7758 13.8871 15.7421 13.835 15.6987 13.7916C15.6558 13.7483 15.6046 13.7144 15.5458 13.6902C15.4872 13.6663 15.4236 13.6542 15.3553 13.6542ZM15.3553 13.3371C15.4737 13.3371 15.5835 13.3577 15.6844 13.3992C15.7853 13.4403 15.8727 13.4973 15.9462 13.5697C16.0201 13.642 16.0775 13.7277 16.1192 13.8261C16.1609 13.925 16.1817 14.0323 16.1817 14.148C16.1817 14.2638 16.1609 14.371 16.1192 14.4699C16.0775 14.5683 16.0201 14.6544 15.9462 14.7267C15.8727 14.7991 15.7853 14.8557 15.6844 14.8972C15.5835 14.9384 15.4737 14.9589 15.3553 14.9589C15.2368 14.9589 15.1271 14.9384 15.0261 14.8972C14.9252 14.8557 14.8385 14.7991 14.7654 14.7267C14.6923 14.6544 14.6348 14.5683 14.5932 14.4699C14.5515 14.371 14.5306 14.2638 14.5306 14.148C14.5306 14.0323 14.5515 13.925 14.5932 13.8261C14.6348 13.7277 14.6923 13.642 14.7654 13.5697C14.8385 13.4973 14.9252 13.4403 15.0261 13.3992C15.1271 13.3577 15.2368 13.3371 15.3553 13.3371ZM6.71921 14.1429C6.71921 13.8732 6.89516 13.6516 7.18258 13.6516C7.45722 13.6516 7.64261 13.8636 7.64261 14.1429C7.64261 14.4222 7.45722 14.6338 7.18258 14.6338C6.89516 14.6338 6.71921 14.4126 6.71921 14.1429ZM7.95565 14.1429V13.3757H7.62355V13.562C7.5179 13.4238 7.35847 13.3371 7.14124 13.3371C6.71305 13.3371 6.37767 13.674 6.37767 14.1429C6.37767 14.6113 6.71305 14.9487 7.14124 14.9487C7.35847 14.9487 7.5179 14.8619 7.62355 14.7238V14.9101H7.95565V14.1429ZM6.08368 14.9101V13.9471C6.08368 13.5843 5.85366 13.3404 5.48322 13.3371C5.28831 13.3338 5.08682 13.3948 4.94639 13.6101C4.84108 13.44 4.67469 13.3371 4.44139 13.3371C4.27865 13.3371 4.11885 13.3853 3.99415 13.5649V13.3757H3.66211V14.9101H3.99744V14.0594C3.99744 13.7931 4.14445 13.6516 4.37117 13.6516C4.59168 13.6516 4.70358 13.796 4.70358 14.0562V14.9101H5.03891V14.0594C5.03891 13.7931 5.1925 13.6516 5.41264 13.6516C5.63973 13.6516 5.74834 13.796 5.74834 14.0562V14.9101H6.08368Z" fill="#9A9C9E"/>
<path d="M19.2318 6.22666C19.2318 9.41854 16.6569 12.006 13.4806 12.006C12.1389 12.006 10.9043 11.5442 9.92578 10.7703C11.2638 9.71214 12.1228 8.0701 12.1228 6.22666C12.1228 4.38323 11.2638 2.74116 9.92578 1.68295C10.9043 0.909133 12.1389 0.447266 13.4806 0.447266C16.6569 0.447266 19.2318 3.03474 19.2318 6.22666Z" fill="#0099DF"/>
<path d="M7.73391 6.22666C7.73391 4.38323 8.59294 2.74116 9.9306 1.68295C8.95239 0.909133 7.71785 0.447266 6.3761 0.447266C3.19979 0.447266 0.625 3.03474 0.625 6.22666C0.625 9.41854 3.19979 12.006 6.3761 12.006C7.71785 12.006 8.95239 11.5442 9.9306 10.7703C8.59294 9.71214 7.73391 8.0701 7.73391 6.22666Z" fill="#EB001B"/>
</g>
<defs>
<clipPath id="clip0_1774_95329">
<rect width="19" height="15" fill="white" transform="translate(0.5)"/>
</clipPath>
</defs>
</svg>
