<svg width="32" height="33" viewBox="0 0 32 33" fill="none" xmlns="http://www.w3.org/2000/svg">
<path d="M24.0386 4.1913L25.0826 6.6433C25.2009 6.92853 25.373 7.18828 25.5896 7.4083C25.8093 7.62518 26.0687 7.79767 26.3536 7.9163L28.8056 8.9603C29.6734 9.33124 30.3615 10.0271 30.7228 10.8989C31.084 11.7707 31.0897 12.7493 30.7386 13.6253L29.7446 16.0973C29.6266 16.3828 29.5648 16.6884 29.5626 16.9973C29.5652 17.3064 29.6277 17.612 29.7466 17.8973L30.7406 20.3693C31.0917 21.2453 31.086 22.2239 30.7248 23.0957C30.3635 23.9675 29.6754 24.6634 28.8076 25.0343L26.3556 26.0783C26.0704 26.1965 25.8107 26.3687 25.5906 26.5853C25.3738 26.8049 25.2013 27.0643 25.0826 27.3493L24.0386 29.8013C23.6677 30.6691 22.9719 31.3572 22.1 31.7184C21.2282 32.0797 20.2496 32.0854 19.3736 31.7343L16.9016 30.7403C16.6161 30.6223 16.3106 30.5605 16.0016 30.5583C15.6926 30.5609 15.3869 30.6234 15.1016 30.7423L12.6296 31.7363C11.7537 32.0874 10.7751 32.0817 9.90324 31.7204C9.03141 31.3592 8.33558 30.6711 7.96464 29.8033L6.91964 27.3513C6.80142 27.0661 6.62928 26.8063 6.41264 26.5863C6.19301 26.3694 5.93361 26.1969 5.64864 26.0783L3.19464 25.0353C2.32689 24.6644 1.63877 23.9685 1.27751 23.0967C0.916261 22.2249 0.910563 21.2463 1.26164 20.3703L2.25564 17.8983C2.37367 17.6128 2.43546 17.3072 2.43764 16.9983C2.43506 16.6892 2.37257 16.3836 2.25364 16.0983L1.25964 13.6263C0.908072 12.7498 0.913736 11.7705 1.27542 10.8982C1.6371 10.0259 2.32604 9.32986 3.19464 8.9593L5.64664 7.9163C5.93188 7.79808 6.19163 7.62593 6.41164 7.4093C6.62874 7.18908 6.80124 6.92897 6.91964 6.6433L7.96264 4.1913C8.33358 3.32354 9.02941 2.63542 9.90124 2.27417C10.7731 1.91292 11.7517 1.90722 12.6276 2.2583L15.0996 3.2533C15.3851 3.37132 15.6907 3.43312 15.9996 3.4353C16.3087 3.43271 16.6144 3.37022 16.8996 3.2513L19.3716 2.2573C20.2476 1.90622 21.2262 1.91192 22.098 2.27317C22.9699 2.63442 23.6657 3.32254 24.0366 4.1903L24.0386 4.1913ZM11.3686 13.9723H10.2606V18.4323C10.2606 18.4763 10.2606 18.5793 10.1666 18.5793C10.0886 18.5793 10.0666 18.4933 10.0286 18.4323L7.46164 14.3783C7.36161 14.2176 7.21882 14.088 7.04926 14.0039C6.8797 13.9199 6.69008 13.8847 6.50164 13.9023C5.93164 13.9023 5.57664 14.2023 5.57664 14.7233V20.0233H6.68264V15.5803C6.68264 15.4593 6.76064 15.4073 6.80364 15.4073C6.82064 15.4073 6.85564 15.4243 6.94164 15.5533L9.49264 19.5813C9.59093 19.7495 9.73464 19.8865 9.90727 19.9767C10.0799 20.0669 10.2745 20.1066 10.4686 20.0913C10.5867 20.1065 10.7066 20.0953 10.8197 20.0583C10.9328 20.0213 11.0362 19.9596 11.1224 19.8776C11.2087 19.7956 11.2755 19.6953 11.3181 19.5842C11.3607 19.4731 11.3779 19.3539 11.3686 19.2353V13.9723ZM17.2546 20.0233V19.1163H14.0196C13.885 19.1367 13.7474 19.1095 13.6306 19.0393C13.6014 19.008 13.5788 18.9712 13.564 18.931C13.5492 18.8908 13.5426 18.8481 13.5446 18.8053V17.3863H17.1326V16.4783H13.5456V15.2603C13.5397 15.207 13.5455 15.1529 13.5628 15.1021C13.5801 15.0513 13.6084 15.0049 13.6456 14.9663C13.7353 14.9006 13.8459 14.87 13.9566 14.8803H17.2196V13.9723H13.3386C13.208 13.9581 13.0758 13.9716 12.9507 14.0119C12.8256 14.0522 12.7104 14.1185 12.6126 14.2063C12.4731 14.3862 12.4 14.6087 12.4056 14.8363V19.1243C12.392 19.2516 12.405 19.3804 12.4437 19.5024C12.4825 19.6245 12.5461 19.7371 12.6306 19.8333C12.7267 19.9106 12.8375 19.9674 12.9564 20C13.0753 20.0327 13.1996 20.0406 13.3216 20.0233H17.2546ZM19.8736 18.6663C19.8566 18.7273 19.7966 18.8133 19.7446 18.8133C19.6586 18.8133 19.6316 18.6833 19.6146 18.6313L18.4146 13.9723H17.2546L18.7066 19.2453C18.8886 19.9103 19.2066 20.0923 19.6926 20.0923C19.9221 20.1119 20.1502 20.0418 20.329 19.8967C20.5079 19.7516 20.6235 19.5429 20.6516 19.3143L21.7196 15.3983C21.7366 15.3383 21.7626 15.2343 21.8316 15.2343C21.8756 15.2343 21.9316 15.2943 21.9526 15.3983L23.0196 19.3163C23.0502 19.5455 23.1677 19.7542 23.348 19.899C23.5282 20.0439 23.7572 20.1138 23.9876 20.0943C24.6976 20.0943 24.8526 19.6453 24.9646 19.2473L26.4256 13.9743H25.2676L24.0676 18.6333C24.0326 18.7803 23.9676 18.8153 23.9296 18.8153C23.8776 18.8153 23.8166 18.7293 23.7996 18.6683L22.6766 14.5273C22.641 14.3369 22.5347 14.1671 22.3791 14.0517C22.2236 13.9364 22.0302 13.8841 21.8376 13.9053C21.645 13.8824 21.4508 13.9341 21.295 14.0497C21.1392 14.1654 21.0335 14.3362 20.9996 14.5273L19.8756 18.6683L19.8736 18.6663ZM23.9816 7.1113L22.9366 4.6593C22.6888 4.07953 22.2238 3.61987 21.6412 3.37875C21.0586 3.13764 20.4047 3.13424 19.8196 3.3693L17.3476 4.3693C16.9205 4.5446 16.4634 4.6356 16.0016 4.6373C15.5397 4.63435 15.0827 4.54234 14.6556 4.3663L12.1836 3.3663C11.5979 3.13061 10.943 3.13412 10.3598 3.37608C9.77656 3.61805 9.31154 4.07915 9.06464 4.6603L8.01964 7.1113C7.84229 7.53852 7.58386 7.92735 7.25864 8.2563C6.93049 8.58083 6.54271 8.8389 6.11664 9.0163L3.66364 10.0613C3.08328 10.3088 2.62304 10.7738 2.38168 11.3568C2.14032 11.9397 2.13708 12.594 2.37264 13.1793L3.37264 15.6513C3.54794 16.0785 3.63895 16.5355 3.64064 16.9973C3.6377 17.4592 3.54568 17.9162 3.36964 18.3433L2.36964 20.8153C2.13414 21.4007 2.13753 22.0551 2.37908 22.6381C2.62063 23.221 3.0811 23.686 3.66164 23.9333L6.11264 24.9783C6.53995 25.1559 6.92878 25.4147 7.25764 25.7403C7.58218 26.0684 7.84024 26.4562 8.01764 26.8823L9.06264 29.3333C9.30991 29.9138 9.77493 30.3743 10.3579 30.6159C10.9408 30.8574 11.5952 30.8608 12.1806 30.6253L14.6526 29.6253C15.0798 29.45 15.5369 29.359 15.9986 29.3573C16.4606 29.3602 16.9176 29.4523 17.3446 29.6283L19.8166 30.6283C20.4021 30.8638 21.0565 30.8604 21.6394 30.6189C22.2224 30.3773 22.6874 29.9168 22.9346 29.3363L23.9796 26.8853C24.1573 26.458 24.4161 26.0692 24.7416 25.7403C25.0698 25.4158 25.4576 25.1577 25.8836 24.9803L28.3346 23.9353C28.9158 23.6884 29.3769 23.2234 29.6189 22.6402C29.8608 22.0569 29.8643 21.4021 29.6286 20.8163L28.6286 18.3443C28.4533 17.9171 28.3623 17.46 28.3606 16.9983C28.3636 16.5364 28.4556 16.0794 28.6316 15.6523L29.6316 13.1803C29.8671 12.5949 29.8638 11.9405 29.6222 11.3575C29.3806 10.7746 28.9202 10.3096 28.3396 10.0623L25.8866 9.0163C25.4593 8.83864 25.0705 8.57987 24.7416 8.2543C24.4171 7.92615 24.159 7.53837 23.9816 7.1123V7.1113Z" fill="#323233"/>
</svg>
