<svg width="64" height="64" viewBox="0 0 64 64" fill="none" xmlns="http://www.w3.org/2000/svg">
<g opacity="0.1">
<path fill-rule="evenodd" clip-rule="evenodd" d="M45.3333 56.0006C37.9707 56.0006 32 50.03 32 42.6673C32 35.3047 37.9707 29.334 45.3333 29.334C52.6987 29.334 58.6667 35.3047 58.6667 42.6673C58.6667 50.03 52.6987 56.0006 45.3333 56.0006Z" fill="#785549"/>
<path fill-rule="evenodd" clip-rule="evenodd" d="M45.3333 56.0006C37.9707 56.0006 32 50.03 32 42.6673C32 35.3047 37.9707 29.334 45.3333 29.334C52.6987 29.334 58.6667 35.3047 58.6667 42.6673C58.6667 50.03 52.6987 56.0006 45.3333 56.0006Z" fill="#7E5445"/>
<path d="M45.3333 56.0006C37.9707 56.0006 32 50.03 32 42.6673C32 35.3047 37.9707 29.334 45.3333 29.334C52.6987 29.334 58.6667 35.3047 58.6667 42.6673C58.6667 50.03 52.6987 56.0006 45.3333 56.0006" stroke="#785549" stroke-width="2" stroke-linecap="round" stroke-linejoin="round"/>
<path d="M45.3333 56.0006C37.9707 56.0006 32 50.03 32 42.6673C32 35.3047 37.9707 29.334 45.3333 29.334C52.6987 29.334 58.6667 35.3047 58.6667 42.6673C58.6667 50.03 52.6987 56.0006 45.3333 56.0006" stroke="#7E5445" stroke-width="2" stroke-linecap="round" stroke-linejoin="round"/>
</g>
<path d="M37.3333 53.3333H13.6667C10.536 53.3333 8 50.7973 8 47.6667V20.9467C8 20.1813 8.15467 19.4213 8.456 18.72L11.568 11.44C12.4587 9.35467 14.5093 8 16.7787 8H44.5573C46.8267 8 48.8747 9.35467 49.768 11.44L52.88 18.72C53.1787 19.424 53.3333 20.1813 53.3333 20.9467V32" stroke="#785549" stroke-width="2" stroke-linecap="round" stroke-linejoin="round"/>
<path d="M37.3333 53.3333H13.6667C10.536 53.3333 8 50.7973 8 47.6667V20.9467C8 20.1813 8.15467 19.4213 8.456 18.72L11.568 11.44C12.4587 9.35467 14.5093 8 16.7787 8H44.5573C46.8267 8 48.8747 9.35467 49.768 11.44L52.88 18.72C53.1787 19.424 53.3333 20.1813 53.3333 20.9467V32" stroke="#7E5445" stroke-width="2" stroke-linecap="round" stroke-linejoin="round"/>
<path d="M30.6673 8V19.84" stroke="#785549" stroke-width="2" stroke-linecap="round" stroke-linejoin="round"/>
<path d="M30.6673 8V19.84" stroke="#7E5445" stroke-width="2" stroke-linecap="round" stroke-linejoin="round"/>
<path d="M53.2192 19.8392H8.11523" stroke="#785549" stroke-width="2" stroke-linecap="round" stroke-linejoin="round"/>
<path d="M53.2192 19.8392H8.11523" stroke="#7E5445" stroke-width="2" stroke-linecap="round" stroke-linejoin="round"/>
<path d="M16 42.6673H21.3333" stroke="#785549" stroke-width="2" stroke-linecap="round" stroke-linejoin="round"/>
<path d="M16 42.6673H21.3333" stroke="#7E5445" stroke-width="2" stroke-linecap="round" stroke-linejoin="round"/>
<path d="M45.3333 56.0006C37.9707 56.0006 32 50.03 32 42.6673C32 35.3047 37.9707 29.334 45.3333 29.334C52.6987 29.334 58.6667 35.3047 58.6667 42.6673C58.6667 50.03 52.6987 56.0006 45.3333 56.0006" stroke="#785549" stroke-width="2" stroke-linecap="round" stroke-linejoin="round"/>
<path d="M45.3333 56.0006C37.9707 56.0006 32 50.03 32 42.6673C32 35.3047 37.9707 29.334 45.3333 29.334C52.6987 29.334 58.6667 35.3047 58.6667 42.6673C58.6667 50.03 52.6987 56.0006 45.3333 56.0006" stroke="#7E5445" stroke-width="2" stroke-linecap="round" stroke-linejoin="round"/>
<path d="M50.0565 41.287L51.1365 40.207C52.1099 42.503 51.6619 45.255 49.7899 47.1244C48.2885 48.6257 46.2245 49.191 44.2832 48.8577" stroke="#785549" stroke-width="2" stroke-linecap="round" stroke-linejoin="round"/>
<path d="M50.0565 41.287L51.1365 40.207C52.1099 42.503 51.6619 45.255 49.7899 47.1244C48.2885 48.6257 46.2245 49.191 44.2832 48.8577" stroke="#7E5445" stroke-width="2" stroke-linecap="round" stroke-linejoin="round"/>
<path d="M40.611 44.0457L39.531 45.1257C38.5577 42.8297 39.0057 40.0777 40.8777 38.2083C42.4697 36.6163 44.699 36.0803 46.7417 36.547" stroke="#785549" stroke-width="2" stroke-linecap="round" stroke-linejoin="round"/>
<path d="M40.611 44.0457L39.531 45.1257C38.5577 42.8297 39.0057 40.0777 40.8777 38.2083C42.4697 36.6163 44.699 36.0803 46.7417 36.547" stroke="#7E5445" stroke-width="2" stroke-linecap="round" stroke-linejoin="round"/>
</svg>
