<svg width="64" height="64" viewBox="0 0 64 64" fill="none" xmlns="http://www.w3.org/2000/svg">
<path d="M16.336 36.8008L8 45.3341L14.6667 49.3341L18.6667 56.0008L29.064 45.0808" stroke="#785549" stroke-width="2" stroke-linecap="round" stroke-linejoin="round"/>
<path d="M16.336 36.8008L8 45.3341L14.6667 49.3341L18.6667 56.0008L29.064 45.0808" stroke="#7E5445" stroke-width="2" stroke-linecap="round" stroke-linejoin="round"/>
<path d="M34.9355 45.0808L45.3329 56.0008L49.3329 49.3341L55.9995 45.3341L47.6635 36.8008" stroke="#785549" stroke-width="2" stroke-linecap="round" stroke-linejoin="round"/>
<path d="M34.9355 45.0808L45.3329 56.0008L49.3329 49.3341L55.9995 45.3341L47.6635 36.8008" stroke="#7E5445" stroke-width="2" stroke-linecap="round" stroke-linejoin="round"/>
<path d="M45.2 13.4673C52.4898 20.7571 52.4898 32.5762 45.2 39.866C37.9102 47.1558 26.0911 47.1558 18.8013 39.866C11.5115 32.5762 11.5115 20.7571 18.8013 13.4673C26.0911 6.17755 37.9102 6.17755 45.2 13.4673" stroke="#785549" stroke-width="2" stroke-linecap="round" stroke-linejoin="round"/>
<path d="M45.2 13.4673C52.4898 20.7571 52.4898 32.5762 45.2 39.866C37.9102 47.1558 26.0911 47.1558 18.8013 39.866C11.5115 32.5762 11.5115 20.7571 18.8013 13.4673C26.0911 6.17755 37.9102 6.17755 45.2 13.4673" stroke="#7E5445" stroke-width="2" stroke-linecap="round" stroke-linejoin="round"/>
<g opacity="0.1">
<path fill-rule="evenodd" clip-rule="evenodd" d="M31.9978 33.5568L36.7898 36.0741C37.7231 36.5648 38.8138 35.7728 38.6351 34.7328L37.7204 29.3968L41.5978 25.6208C42.3524 24.8848 41.9364 23.6021 40.8938 23.4501L35.5364 22.6715L33.1418 17.8155C32.6751 16.8688 31.3284 16.8688 30.8618 17.8155L28.4671 22.6715L23.1071 23.4528C22.0644 23.6048 21.6484 24.8875 22.4031 25.6235L26.2804 29.3995L25.3658 34.7355C25.1871 35.7755 26.2778 36.5675 27.2111 36.0768L32.0031 33.5595H31.9978V33.5568Z" fill="#785549"/>
<path fill-rule="evenodd" clip-rule="evenodd" d="M31.9978 33.5568L36.7898 36.0741C37.7231 36.5648 38.8138 35.7728 38.6351 34.7328L37.7204 29.3968L41.5978 25.6208C42.3524 24.8848 41.9364 23.6021 40.8938 23.4501L35.5364 22.6715L33.1418 17.8155C32.6751 16.8688 31.3284 16.8688 30.8618 17.8155L28.4671 22.6715L23.1071 23.4528C22.0644 23.6048 21.6484 24.8875 22.4031 25.6235L26.2804 29.3995L25.3658 34.7355C25.1871 35.7755 26.2778 36.5675 27.2111 36.0768L32.0031 33.5595H31.9978V33.5568Z" fill="#7E5445"/>
<path fill-rule="evenodd" clip-rule="evenodd" d="M31.9978 33.5568L36.7898 36.0741C37.7231 36.5648 38.8138 35.7728 38.6351 34.7328L37.7204 29.3968L41.5978 25.6208C42.3524 24.8848 41.9364 23.6021 40.8938 23.4501L35.5364 22.6715L33.1418 17.8155C32.6751 16.8688 31.3284 16.8688 30.8618 17.8155L28.4671 22.6715L23.1071 23.4528C22.0644 23.6048 21.6484 24.8875 22.4031 25.6235L26.2804 29.3995L25.3658 34.7355C25.1871 35.7755 26.2778 36.5675 27.2111 36.0768L32.0031 33.5595H31.9978V33.5568Z" stroke="#785549" stroke-width="2" stroke-linecap="round" stroke-linejoin="round"/>
<path fill-rule="evenodd" clip-rule="evenodd" d="M31.9978 33.5568L36.7898 36.0741C37.7231 36.5648 38.8138 35.7728 38.6351 34.7328L37.7204 29.3968L41.5978 25.6208C42.3524 24.8848 41.9364 23.6021 40.8938 23.4501L35.5364 22.6715L33.1418 17.8155C32.6751 16.8688 31.3284 16.8688 30.8618 17.8155L28.4671 22.6715L23.1071 23.4528C22.0644 23.6048 21.6484 24.8875 22.4031 25.6235L26.2804 29.3995L25.3658 34.7355C25.1871 35.7755 26.2778 36.5675 27.2111 36.0768L32.0031 33.5595H31.9978V33.5568Z" stroke="#7E5445" stroke-width="2" stroke-linecap="round" stroke-linejoin="round"/>
</g>
<path fill-rule="evenodd" clip-rule="evenodd" d="M31.9978 33.5568L36.7898 36.0741C37.7231 36.5648 38.8138 35.7728 38.6351 34.7328L37.7204 29.3968L41.5978 25.6208C42.3524 24.8848 41.9364 23.6021 40.8938 23.4501L35.5364 22.6715L33.1418 17.8155C32.6751 16.8688 31.3284 16.8688 30.8618 17.8155L28.4671 22.6715L23.1071 23.4528C22.0644 23.6048 21.6484 24.8875 22.4031 25.6235L26.2804 29.3995L25.3658 34.7355C25.1871 35.7755 26.2778 36.5675 27.2111 36.0768L32.0031 33.5595H31.9978V33.5568Z" stroke="#785549" stroke-width="2" stroke-linecap="round" stroke-linejoin="round"/>
<path fill-rule="evenodd" clip-rule="evenodd" d="M31.9978 33.5568L36.7898 36.0741C37.7231 36.5648 38.8138 35.7728 38.6351 34.7328L37.7204 29.3968L41.5978 25.6208C42.3524 24.8848 41.9364 23.6021 40.8938 23.4501L35.5364 22.6715L33.1418 17.8155C32.6751 16.8688 31.3284 16.8688 30.8618 17.8155L28.4671 22.6715L23.1071 23.4528C22.0644 23.6048 21.6484 24.8875 22.4031 25.6235L26.2804 29.3995L25.3658 34.7355C25.1871 35.7755 26.2778 36.5675 27.2111 36.0768L32.0031 33.5595H31.9978V33.5568Z" stroke="#7E5445" stroke-width="2" stroke-linecap="round" stroke-linejoin="round"/>
</svg>
