<svg width="21" height="20" viewBox="0 0 21 20" fill="none" xmlns="http://www.w3.org/2000/svg">
<path d="M2.16699 1.66602H3.617C4.517 1.66602 5.22533 2.44102 5.15033 3.33268L4.45866 11.6327C4.34199 12.991 5.41699 14.1577 6.78365 14.1577H15.6587C16.8587 14.1577 17.9087 13.1744 18.0003 11.9827L18.4503 5.73269C18.5503 4.34935 17.5003 3.22434 16.1087 3.22434H5.35033" stroke="white" stroke-width="1.5" stroke-miterlimit="10" stroke-linecap="round" stroke-linejoin="round"/>
<path d="M14.0417 18.3333C14.617 18.3333 15.0833 17.867 15.0833 17.2917C15.0833 16.7164 14.617 16.25 14.0417 16.25C13.4664 16.25 13 16.7164 13 17.2917C13 17.867 13.4664 18.3333 14.0417 18.3333Z" stroke="white" stroke-width="1.5" stroke-miterlimit="10" stroke-linecap="round" stroke-linejoin="round"/>
<path d="M7.37467 18.3333C7.94997 18.3333 8.41634 17.867 8.41634 17.2917C8.41634 16.7164 7.94997 16.25 7.37467 16.25C6.79938 16.25 6.33301 16.7164 6.33301 17.2917C6.33301 17.867 6.79938 18.3333 7.37467 18.3333Z" stroke="white" stroke-width="1.5" stroke-miterlimit="10" stroke-linecap="round" stroke-linejoin="round"/>
<path d="M8 6.66602H18" stroke="white" stroke-width="1.5" stroke-miterlimit="10" stroke-linecap="round" stroke-linejoin="round"/>
</svg>
