<svg width="32" height="32" viewBox="0 0 32 32" fill="none" xmlns="http://www.w3.org/2000/svg">
<path d="M14.667 17.334H10.667V21.334H13.3337" stroke="#785549" stroke-width="1.5" stroke-linecap="round" stroke-linejoin="round"/>
<path d="M14.667 17.334H10.667V21.334H13.3337" stroke="#7E5445" stroke-width="1.5" stroke-linecap="round" stroke-linejoin="round"/>
<path d="M4 26.6667L14.6667 26.6666" stroke="#785549" stroke-width="1.5" stroke-linecap="round" stroke-linejoin="round"/>
<path d="M4 26.6667L14.6667 26.6666" stroke="#7E5445" stroke-width="1.5" stroke-linecap="round" stroke-linejoin="round"/>
<path d="M5.62663 26.667V13.3164" stroke="#785549" stroke-width="1.5" stroke-linecap="round" stroke-linejoin="round"/>
<path d="M5.62663 26.667V13.3164" stroke="#7E5445" stroke-width="1.5" stroke-linecap="round" stroke-linejoin="round"/>
<path fill-rule="evenodd" clip-rule="evenodd" d="M28.9654 8.63622C29.3589 9.37729 29.4371 10.2457 29.1824 11.0451C28.7418 12.4321 27.4402 13.363 25.9853 13.3319C24.5304 13.3008 23.2699 12.3151 22.8889 10.9106C22.8648 10.829 22.7899 10.773 22.7048 10.773C22.6197 10.773 22.5448 10.829 22.5206 10.9106C22.1316 12.3401 20.8335 13.332 19.352 13.3319C17.8705 13.3317 16.5726 12.3395 16.1839 10.9099C16.1598 10.8283 16.0848 10.7723 15.9997 10.7723C15.9146 10.7723 15.8397 10.8283 15.8156 10.9099C15.4267 12.3395 14.1286 13.3316 12.6471 13.3315C11.1655 13.3315 9.86753 12.3393 9.47875 10.9097C9.45458 10.8281 9.37965 10.7722 9.29458 10.7722C9.20952 10.7722 9.13458 10.8281 9.11041 10.9097C8.72942 12.314 7.46897 13.2996 6.0142 13.3308C4.55943 13.3619 3.25794 12.4312 2.81718 11.0444C2.56233 10.2448 2.64054 9.37629 3.03414 8.6351L5.30977 4.13031C5.76341 3.23228 6.68387 2.66602 7.68998 2.66602H24.3091C25.3152 2.66602 26.2356 3.23228 26.6893 4.13031L28.9654 8.63622Z" stroke="#785549" stroke-width="1.5" stroke-linecap="round" stroke-linejoin="round"/>
<path fill-rule="evenodd" clip-rule="evenodd" d="M28.9654 8.63622C29.3589 9.37729 29.4371 10.2457 29.1824 11.0451C28.7418 12.4321 27.4402 13.363 25.9853 13.3319C24.5304 13.3008 23.2699 12.3151 22.8889 10.9106C22.8648 10.829 22.7899 10.773 22.7048 10.773C22.6197 10.773 22.5448 10.829 22.5206 10.9106C22.1316 12.3401 20.8335 13.332 19.352 13.3319C17.8705 13.3317 16.5726 12.3395 16.1839 10.9099C16.1598 10.8283 16.0848 10.7723 15.9997 10.7723C15.9146 10.7723 15.8397 10.8283 15.8156 10.9099C15.4267 12.3395 14.1286 13.3316 12.6471 13.3315C11.1655 13.3315 9.86753 12.3393 9.47875 10.9097C9.45458 10.8281 9.37965 10.7722 9.29458 10.7722C9.20952 10.7722 9.13458 10.8281 9.11041 10.9097C8.72942 12.314 7.46897 13.2996 6.0142 13.3308C4.55943 13.3619 3.25794 12.4312 2.81718 11.0444C2.56233 10.2448 2.64054 9.37629 3.03414 8.6351L5.30977 4.13031C5.76341 3.23228 6.68387 2.66602 7.68998 2.66602H24.3091C25.3152 2.66602 26.2356 3.23228 26.6893 4.13031L28.9654 8.63622Z" stroke="#7E5445" stroke-width="1.5" stroke-linecap="round" stroke-linejoin="round"/>
<path fill-rule="evenodd" clip-rule="evenodd" d="M18.667 28.6673V28.126C18.6714 26.5858 19.9188 25.3384 21.459 25.334H25.2083C26.7485 25.3384 27.9959 26.5858 28.0003 28.126V28.6673C28.0003 29.0355 27.7018 29.334 27.3337 29.334H19.3337C19.1568 29.334 18.9873 29.2637 18.8623 29.1387C18.7372 29.0137 18.667 28.8441 18.667 28.6673Z" stroke="#785549" stroke-width="1.5" stroke-linecap="round" stroke-linejoin="round"/>
<path fill-rule="evenodd" clip-rule="evenodd" d="M18.667 28.6673V28.126C18.6714 26.5858 19.9188 25.3384 21.459 25.334H25.2083C26.7485 25.3384 27.9959 26.5858 28.0003 28.126V28.6673C28.0003 29.0355 27.7018 29.334 27.3337 29.334H19.3337C19.1568 29.334 18.9873 29.2637 18.8623 29.1387C18.7372 29.0137 18.667 28.8441 18.667 28.6673Z" stroke="#7E5445" stroke-width="1.5" stroke-linecap="round" stroke-linejoin="round"/>
<circle cx="23.3337" cy="19.3327" r="2.66667" stroke="#785549" stroke-width="1.5" stroke-linecap="round" stroke-linejoin="round"/>
<circle cx="23.3337" cy="19.3327" r="2.66667" stroke="#7E5445" stroke-width="1.5" stroke-linecap="round" stroke-linejoin="round"/>
</svg>
