<svg width="64" height="64" viewBox="0 0 64 64" fill="none" xmlns="http://www.w3.org/2000/svg">
<g opacity="0.1">
<path fill-rule="evenodd" clip-rule="evenodd" d="M58.6783 45.339V37.3357C58.6783 35.1233 54.1964 33.334 48.6741 33.334C43.1518 33.334 38.6728 35.1262 38.6699 37.3357V53.3423C38.6728 55.5518 43.1489 57.344 48.6741 57.344C54.1992 57.344 58.6754 55.5518 58.6783 53.3423V37.3357" fill="#785549"/>
<path fill-rule="evenodd" clip-rule="evenodd" d="M58.6783 45.339V37.3357C58.6783 35.1233 54.1964 33.334 48.6741 33.334C43.1518 33.334 38.6728 35.1262 38.6699 37.3357V53.3423C38.6728 55.5518 43.1489 57.344 48.6741 57.344C54.1992 57.344 58.6754 55.5518 58.6783 53.3423V37.3357" fill="#7E5445"/>
<path d="M58.6783 45.339V37.3357C58.6783 35.1233 54.1964 33.334 48.6741 33.334C43.1518 33.334 38.6728 35.1262 38.6699 37.3357V53.3423C38.6728 55.5518 43.1489 57.344 48.6741 57.344C54.1992 57.344 58.6754 55.5518 58.6783 53.3423V37.3357" stroke="#785549" stroke-width="2" stroke-linecap="round" stroke-linejoin="round"/>
<path d="M58.6783 45.339V37.3357C58.6783 35.1233 54.1964 33.334 48.6741 33.334C43.1518 33.334 38.6728 35.1262 38.6699 37.3357V53.3423C38.6728 55.5518 43.1489 57.344 48.6741 57.344C54.1992 57.344 58.6754 55.5518 58.6783 53.3423V37.3357" stroke="#7E5445" stroke-width="2" stroke-linecap="round" stroke-linejoin="round"/>
</g>
<path d="M58.6783 45.339V37.3357C58.6783 35.1233 54.1964 33.334 48.6741 33.334C43.1518 33.334 38.6728 35.1262 38.6699 37.3357V53.3423C38.6728 55.5518 43.1489 57.344 48.6741 57.344C54.1992 57.344 58.6754 55.5518 58.6783 53.3423V37.3357" stroke="#785549" stroke-width="2" stroke-linecap="round" stroke-linejoin="round"/>
<path d="M58.6783 45.339V37.3357C58.6783 35.1233 54.1964 33.334 48.6741 33.334C43.1518 33.334 38.6728 35.1262 38.6699 37.3357V53.3423C38.6728 55.5518 43.1489 57.344 48.6741 57.344C54.1992 57.344 58.6754 55.5518 58.6783 53.3423V37.3357" stroke="#7E5445" stroke-width="2" stroke-linecap="round" stroke-linejoin="round"/>
<path d="M20.3418 36.9774L30.0952 31.0309V18.623" stroke="#785549" stroke-width="2" stroke-linecap="round" stroke-linejoin="round"/>
<path d="M20.3418 36.9774L30.0952 31.0309V18.623" stroke="#7E5445" stroke-width="2" stroke-linecap="round" stroke-linejoin="round"/>
<path d="M52.7257 23.9957C49.93 11.7492 38.1651 3.72947 25.7441 5.6032C13.3231 7.47692 4.44746 18.6103 5.3887 31.1365C6.32995 43.6627 16.7697 53.3447 29.3312 53.3412" stroke="#785549" stroke-width="2" stroke-linecap="round" stroke-linejoin="round"/>
<path d="M52.7257 23.9957C49.93 11.7492 38.1651 3.72947 25.7441 5.6032C13.3231 7.47692 4.44746 18.6103 5.3887 31.1365C6.32995 43.6627 16.7697 53.3447 29.3312 53.3412" stroke="#7E5445" stroke-width="2" stroke-linecap="round" stroke-linejoin="round"/>
<path d="M38.6719 37.3359C38.6719 39.5454 43.1509 41.3376 48.676 41.3376C54.2012 41.3376 58.6774 39.5454 58.6774 37.3359" stroke="#785549" stroke-width="2" stroke-linecap="round" stroke-linejoin="round"/>
<path d="M38.6719 37.3359C38.6719 39.5454 43.1509 41.3376 48.676 41.3376C54.2012 41.3376 58.6774 39.5454 58.6774 37.3359" stroke="#7E5445" stroke-width="2" stroke-linecap="round" stroke-linejoin="round"/>
<path d="M38.6719 45.3379C38.6719 47.5474 43.1509 49.3396 48.676 49.3396C54.2012 49.3396 58.6802 47.5474 58.6802 45.3379" stroke="#785549" stroke-width="2" stroke-linecap="round" stroke-linejoin="round"/>
<path d="M38.6719 45.3379C38.6719 47.5474 43.1509 49.3396 48.676 49.3396C54.2012 49.3396 58.6802 47.5474 58.6802 45.3379" stroke="#7E5445" stroke-width="2" stroke-linecap="round" stroke-linejoin="round"/>
</svg>
