<svg width="26" height="26" viewBox="0 0 26 26" fill="none" xmlns="http://www.w3.org/2000/svg">
<path fill-rule="evenodd" clip-rule="evenodd" d="M8.39583 10.5625H5.41667C4.21958 10.5625 3.25 9.59292 3.25 8.39583V5.41667C3.25 4.21958 4.21958 3.25 5.41667 3.25H8.39583C9.59292 3.25 10.5625 4.21958 10.5625 5.41667V8.39583C10.5625 9.59292 9.59292 10.5625 8.39583 10.5625Z" stroke="#1A1818" stroke-width="1.5" stroke-linecap="round" stroke-linejoin="round"/>
<path fill-rule="evenodd" clip-rule="evenodd" d="M20.5833 10.5625H17.6042C16.4071 10.5625 15.4375 9.59292 15.4375 8.39583V5.41667C15.4375 4.21958 16.4071 3.25 17.6042 3.25H20.5833C21.7804 3.25 22.75 4.21958 22.75 5.41667V8.39583C22.75 9.59292 21.7804 10.5625 20.5833 10.5625Z" stroke="#1A1818" stroke-width="1.5" stroke-linecap="round" stroke-linejoin="round"/>
<path fill-rule="evenodd" clip-rule="evenodd" d="M8.39583 22.75H5.41667C4.21958 22.75 3.25 21.7804 3.25 20.5833V17.6042C3.25 16.4071 4.21958 15.4375 5.41667 15.4375H8.39583C9.59292 15.4375 10.5625 16.4071 10.5625 17.6042V20.5833C10.5625 21.7804 9.59292 22.75 8.39583 22.75Z" stroke="#1A1818" stroke-width="1.5" stroke-linecap="round" stroke-linejoin="round"/>
<path fill-rule="evenodd" clip-rule="evenodd" d="M20.5833 22.75H17.6042C16.4071 22.75 15.4375 21.7804 15.4375 20.5833V17.6042C15.4375 16.4071 16.4071 15.4375 17.6042 15.4375H20.5833C21.7804 15.4375 22.75 16.4071 22.75 17.6042V20.5833C22.75 21.7804 21.7804 22.75 20.5833 22.75Z" stroke="#1A1818" stroke-width="1.5" stroke-linecap="round" stroke-linejoin="round"/>
</svg>
