<svg width="36" height="15" viewBox="0 0 36 15" fill="none" xmlns="http://www.w3.org/2000/svg">
<g clip-path="url(#clip0_1774_95314)">
<path d="M15.6481 13.3248H12.8164L14.5876 2.06055H17.4191L15.6481 13.3248Z" fill="#00579F"/>
<path d="M25.9123 2.33504C25.3538 2.10712 24.4678 1.85547 23.3725 1.85547C20.5761 1.85547 18.6069 3.38925 18.5948 5.5821C18.5716 7.19998 20.0047 8.09861 21.0766 8.63801C22.1721 9.18929 22.5445 9.54905 22.5445 10.0405C22.5333 10.7951 21.6593 11.1429 20.844 11.1429C19.7134 11.1429 19.1077 10.9636 18.1871 10.5437L17.8142 10.3637L17.418 12.8923C18.0822 13.2035 19.3058 13.4797 20.5761 13.4918C23.5473 13.4918 25.4817 11.9818 25.5045 9.64493C25.5159 8.36267 24.7592 7.38012 23.1277 6.57723C22.1373 6.06183 21.5307 5.7143 21.5307 5.18695C21.5424 4.70754 22.0437 4.21651 23.1618 4.21651C24.0823 4.19246 24.7587 4.42005 25.271 4.64781L25.5272 4.76743L25.9123 2.33504Z" fill="#00579F"/>
<path d="M29.676 9.33429C29.9092 8.68719 30.8065 6.18265 30.8065 6.18265C30.7948 6.2067 31.0393 5.52358 31.1791 5.10422L31.377 6.07483C31.377 6.07483 31.9132 8.77113 32.0297 9.33429C31.5872 9.33429 30.2353 9.33429 29.676 9.33429ZM33.1714 2.06055H30.9811C30.3056 2.06055 29.7925 2.26409 29.501 2.99515L25.2949 13.3247H28.2661C28.2661 13.3247 28.7553 11.9344 28.8604 11.635C29.1864 11.635 32.0768 11.635 32.4961 11.635C32.5774 12.0305 32.834 13.3247 32.834 13.3247H35.4558L33.1714 2.06055Z" fill="#00579F"/>
<path d="M10.4521 2.06055L7.67897 9.74175L7.37593 8.18391C6.86323 6.38636 5.25531 4.43337 3.46094 3.46229L6.00105 13.3129H8.99549L13.4464 2.06055H10.4521Z" fill="#00579F"/>
<path d="M5.10252 2.06055H0.546609L0.5 2.28814C4.0539 3.22291 6.40759 5.47612 7.37458 8.18439L6.3842 3.00742C6.22114 2.28799 5.72005 2.08428 5.10252 2.06055Z" fill="#FAA61A"/>
</g>
<defs>
<clipPath id="clip0_1774_95314">
<rect width="35" height="15" fill="white" transform="translate(0.5)"/>
</clipPath>
</defs>
</svg>
