<svg width="40" height="40" viewBox="0 0 40 40" fill="none" xmlns="http://www.w3.org/2000/svg">
<path d="M20 40C31.0457 40 40 31.0457 40 20C40 8.9543 31.0457 0 20 0C8.9543 0 0 8.9543 0 20C0 31.0457 8.9543 40 20 40Z" fill="white"/>
<g clip-path="url(#clip0_1779_119785)">
<path d="M27.915 21.028C27.527 20.538 27.638 20.32 27.915 19.882C27.92 19.877 31.123 15.451 31.453 13.95L31.455 13.949C31.619 13.402 31.455 13 30.662 13H28.038C27.37 13 27.062 13.345 26.897 13.731C26.897 13.731 25.561 16.929 23.671 19.002C23.061 19.601 22.779 19.793 22.446 19.793C22.282 19.793 22.027 19.601 22.027 19.054V13.949C22.027 13.293 21.84 13 21.287 13H17.161C16.742 13 16.493 13.306 16.493 13.591C16.493 14.213 17.438 14.356 17.536 16.106V19.903C17.536 20.735 17.385 20.888 17.05 20.888C16.158 20.888 13.993 17.677 12.71 14.002C12.451 13.289 12.198 13.001 11.525 13.001H8.9C8.151 13.001 8 13.346 8 13.732C8 14.414 8.892 17.805 12.148 22.285C14.318 25.343 17.374 27 20.154 27C21.825 27 22.029 26.632 22.029 25.999C22.029 23.077 21.878 22.801 22.715 22.801C23.103 22.801 23.771 22.993 25.331 24.468C27.114 26.217 27.407 27 28.405 27H31.029C31.777 27 32.156 26.632 31.938 25.906C31.439 24.379 28.067 21.238 27.915 21.028Z" fill="#785549"/>
<path d="M27.915 21.028C27.527 20.538 27.638 20.32 27.915 19.882C27.92 19.877 31.123 15.451 31.453 13.95L31.455 13.949C31.619 13.402 31.455 13 30.662 13H28.038C27.37 13 27.062 13.345 26.897 13.731C26.897 13.731 25.561 16.929 23.671 19.002C23.061 19.601 22.779 19.793 22.446 19.793C22.282 19.793 22.027 19.601 22.027 19.054V13.949C22.027 13.293 21.84 13 21.287 13H17.161C16.742 13 16.493 13.306 16.493 13.591C16.493 14.213 17.438 14.356 17.536 16.106V19.903C17.536 20.735 17.385 20.888 17.05 20.888C16.158 20.888 13.993 17.677 12.71 14.002C12.451 13.289 12.198 13.001 11.525 13.001H8.9C8.151 13.001 8 13.346 8 13.732C8 14.414 8.892 17.805 12.148 22.285C14.318 25.343 17.374 27 20.154 27C21.825 27 22.029 26.632 22.029 25.999C22.029 23.077 21.878 22.801 22.715 22.801C23.103 22.801 23.771 22.993 25.331 24.468C27.114 26.217 27.407 27 28.405 27H31.029C31.777 27 32.156 26.632 31.938 25.906C31.439 24.379 28.067 21.238 27.915 21.028Z" fill="#7E5445"/>
</g>
<defs>
<clipPath id="clip0_1779_119785">
<rect width="24" height="24" fill="white" transform="translate(8 8)"/>
</clipPath>
</defs>
</svg>
