<svg width="16" height="15" viewBox="0 0 16 15" fill="none" xmlns="http://www.w3.org/2000/svg">
<g clip-path="url(#clip0_1774_95300)">
<path d="M1.67189 2.4707H13.3906C14.0352 2.4707 14.5625 2.99804 14.5625 3.64259V5.04885C14.5625 5.6934 14.0352 6.22074 13.3906 6.22074H1.67189C1.02734 6.22068 0.5 5.69334 0.5 5.04882V3.64256C0.5 2.99804 1.02734 2.4707 1.67189 2.4707Z" fill="#A86A3F"/>
<path d="M4.23828 3.72422L11.5742 1.77892C11.8203 1.70861 12.0781 1.86095 12.1484 2.10705L13.3672 6.60705C13.4375 6.85315 13.2851 7.11095 13.039 7.18126L3.48829 9.72421C3.24219 9.79452 2.98439 9.64217 2.91408 9.39607L2.02344 6.0914L4.23828 3.72422Z" fill="#5EBA6D"/>
<path d="M12.091 6.46604L10.509 6.8879C10.3801 6.92307 10.2512 6.85273 10.2278 6.72383C10.1926 6.59494 10.2629 6.46601 10.3918 6.44259L11.7512 6.07932L11.0247 3.36057L9.6653 3.72385C9.5364 3.75902 9.40747 3.68868 9.38405 3.55978C9.34888 3.43088 9.41922 3.30196 9.54812 3.27854L11.1301 2.85668C11.259 2.82151 11.388 2.89185 11.4114 3.02075L12.2551 6.1848C12.2902 6.31369 12.2199 6.44259 12.091 6.46604ZM5.52854 8.23558L3.94652 8.65744C3.81762 8.69261 3.68869 8.62227 3.66527 8.49337L2.82152 5.32932C2.78635 5.20042 2.85669 5.0715 2.98559 5.04808L4.56761 4.62622C4.69651 4.59105 4.82544 4.66139 4.84885 4.79029C4.88402 4.91918 4.81368 5.04811 4.68479 5.07153L3.32542 5.4348L4.05197 8.15354L5.41134 7.79027C5.54023 7.7551 5.66916 7.82544 5.69258 7.95434C5.72775 8.07151 5.65744 8.20041 5.52854 8.23558Z" fill="#B3F0BD"/>
<path d="M0.593784 5.36505C2.6797 4.16971 8.30473 0.876737 8.30473 0.876737C8.52738 0.74784 8.82035 0.81815 8.94927 1.0408L11.293 5.07205C11.4219 5.29471 11.3399 5.57595 11.1172 5.70488L2.53908 10.6267C2.31643 10.7556 2.02346 10.6853 1.89454 10.4627C1.89454 10.4627 1.2383 9.12675 0.582031 8.00173C0.582061 5.36505 0.593784 6.23222 0.593784 5.36505Z" fill="#5EBA6D"/>
<path d="M10.0966 4.94233L8.456 2.10639C8.38569 1.98921 8.24507 1.95404 8.13959 2.02435L6.72163 2.84466C6.60446 2.91497 6.56929 3.05559 6.6396 3.16107C6.70991 3.27824 6.85053 3.31341 6.95601 3.2431L8.17476 2.53997L9.58102 4.97747L8.36227 5.6806C8.2451 5.75091 8.20993 5.89153 8.28024 5.99701C8.35055 6.11418 8.49117 6.14935 8.59665 6.07904L10.0146 5.25874C10.1201 5.20015 10.1669 5.05953 10.0966 4.94233ZM3.88569 8.25875L2.66694 8.96188L1.26067 6.52435L2.47942 5.82122C2.5966 5.75091 2.63177 5.61029 2.56146 5.50481C2.49115 5.38764 2.35053 5.35247 2.24505 5.42278L0.827089 6.24308C0.709916 6.31339 0.674746 6.45401 0.745056 6.55949L2.38567 9.39543C2.45598 9.51261 2.5966 9.54778 2.70208 9.47747L4.12003 8.65716C4.23721 8.58685 4.27238 8.44623 4.20207 8.34075C4.14348 8.2353 4.00286 8.18841 3.88569 8.25875ZM4.48334 4.12202C3.581 4.63764 3.27631 5.78608 3.79193 6.68842C4.31927 7.59076 5.45599 7.89544 6.35833 7.37983C7.26067 6.86421 7.56535 5.71577 7.04974 4.81343C6.52239 3.92279 5.38568 3.60641 4.48334 4.12202ZM10.0966 4.94233L8.456 2.10639C8.38569 1.98921 8.24507 1.95404 8.13959 2.02435L6.72163 2.84466C6.60446 2.91497 6.56929 3.05559 6.6396 3.16107C6.70991 3.27824 6.85053 3.31341 6.95601 3.2431L8.17476 2.53997L9.58102 4.97747L8.36227 5.6806C8.2451 5.75091 8.20993 5.89153 8.28024 5.99701C8.35055 6.11418 8.49117 6.14935 8.59665 6.07904L10.0146 5.25874C10.1201 5.20015 10.1669 5.05953 10.0966 4.94233ZM3.88569 8.25875L2.66694 8.96188L1.26067 6.52435L2.47942 5.82122C2.5966 5.75091 2.63177 5.61029 2.56146 5.50481C2.49115 5.38764 2.35053 5.35247 2.24505 5.42278L0.827089 6.24308C0.709916 6.31339 0.674746 6.45401 0.745056 6.55949L2.38567 9.39543C2.45598 9.51261 2.5966 9.54778 2.70208 9.47747L4.12003 8.65716C4.23721 8.58685 4.27238 8.44623 4.20207 8.34075C4.14348 8.2353 4.00286 8.18841 3.88569 8.25875ZM4.48334 4.12202C3.581 4.63764 3.27631 5.78608 3.79193 6.68842C4.31927 7.59076 5.45599 7.89544 6.35833 7.37983C7.26067 6.86421 7.56535 5.71577 7.04974 4.81343C6.52239 3.92279 5.38568 3.60641 4.48334 4.12202Z" fill="#B3F0BD"/>
<path d="M13.8594 14.1895H1.67189C1.02734 14.1895 0.5 13.6621 0.5 13.0176V4.58009H13.8594C14.5039 4.58009 15.0313 5.10743 15.0313 5.75197V13.0176C15.0312 13.6621 14.5039 14.1895 13.8594 14.1895ZM1.43751 4.58009H0.5V3.64258C0.5 4.1582 0.921861 4.58009 1.43751 4.58009Z" fill="#C47E4D"/>
<path d="M15.0312 11.2597H13.1562C12.2539 11.2597 11.5156 10.5215 11.5156 9.61913C11.5156 8.71679 12.2539 7.97852 13.1562 7.97852H15.0312C15.2891 7.97852 15.5 8.18945 15.5 8.44727V10.791C15.5 11.0488 15.2891 11.2597 15.0312 11.2597Z" fill="#A86A3F"/>
<path d="M13.1563 8.68164C13.6719 8.68164 14.0938 9.1035 14.0938 9.61915C14.0938 10.1348 13.6719 10.5567 13.1563 10.5567C12.6406 10.5567 12.2188 10.1348 12.2188 9.61915C12.2188 9.1035 12.6406 8.68164 13.1563 8.68164Z" fill="#EFC75E"/>
<path d="M13.3906 10.3223C12.875 10.3223 12.4531 9.90041 12.4531 9.38477C12.4531 9.18556 12.5117 8.99805 12.6172 8.8457C12.3711 9.00977 12.2188 9.29101 12.2188 9.61914C12.2188 10.1348 12.6406 10.5566 13.1563 10.5566C13.4727 10.5566 13.7539 10.3926 13.9297 10.1582C13.7773 10.2637 13.5898 10.3223 13.3906 10.3223Z" fill="#D7B354"/>
<path d="M13.8594 13.7207H1.67189C1.02734 13.7207 0.5 13.1934 0.5 12.5488V13.0176C0.5 13.6621 1.02734 14.1895 1.67189 14.1895H13.8594C14.5039 14.1895 15.0313 13.6621 15.0313 13.0176V12.5488C15.0312 13.1934 14.5039 13.7207 13.8594 13.7207Z" fill="#B27245"/>
<path d="M13.8594 4.58009H1.43751C0.921861 4.58009 0.5 4.1582 0.5 3.64258V4.11133C0.5 4.62695 0.921861 5.04884 1.43751 5.04884H13.8594C14.5039 5.04884 15.0313 5.57618 15.0313 6.22073V5.75197C15.0312 5.10743 14.5039 4.58009 13.8594 4.58009Z" fill="#CA8B5F"/>
</g>
<defs>
<clipPath id="clip0_1774_95300">
<rect width="15" height="15" fill="white" transform="translate(0.5)"/>
</clipPath>
</defs>
</svg>
