<svg width="32" height="33" viewBox="0 0 32 33" fill="none" xmlns="http://www.w3.org/2000/svg">
<path d="M14.0358 21.0511C14.0562 21.5065 13.9735 21.9606 13.7937 22.3809C13.4303 22.8735 12.9645 23.2849 12.427 23.588C11.7104 24.0347 10.9576 24.4231 10.1762 24.7492L10.1375 24.7642C9.92591 24.8525 9.74044 24.9186 9.57118 24.9786C9.3488 25.0572 9.15884 25.1225 8.97337 25.1842L8.92656 25.1983C3.02589 27.1396 3.44904 31.2162 3.44994 31.2277C3.45821 31.3204 3.44778 31.4138 3.41923 31.5025C3.39068 31.5913 3.34457 31.6736 3.28354 31.7449C3.22251 31.8162 3.14776 31.875 3.06354 31.918C2.97932 31.9609 2.88729 31.9872 2.79271 31.9953C2.69812 32.0035 2.60283 31.9932 2.51228 31.9653C2.42173 31.9373 2.33769 31.8921 2.26495 31.8323C2.19222 31.7725 2.13222 31.6992 2.08838 31.6166C2.04453 31.5341 2.01771 31.4439 2.00943 31.3512C2.00943 31.3362 1.47465 26.1566 8.45839 23.8562L8.51061 23.8368C8.72038 23.7662 8.91575 23.7001 9.07871 23.6418C9.26868 23.573 9.43884 23.5095 9.59189 23.4503L9.627 23.4353C10.3268 23.1433 11.0009 22.7957 11.6428 22.3959C11.987 22.2061 12.2923 21.9554 12.5431 21.6565C12.6062 21.157 12.6159 20.6525 12.5719 20.1511V20.1405V20.0973C12.406 19.9482 12.2479 19.791 12.0984 19.6261C11.1558 18.548 10.5377 17.2344 10.313 15.8318C9.6144 15.7039 8.67897 15.1965 8.67897 13.3973C8.67897 11.1728 9.18765 10.9267 10.1393 10.9267L10.3698 10.9355C10.4175 10.9355 10.4679 10.9399 10.5867 10.9399C10.6735 10.8845 10.7544 10.8206 10.828 10.7493C11.1041 10.4924 11.3461 10.2025 11.5483 9.88633L11.5717 9.85103C11.7298 9.59945 11.8627 9.3335 11.9687 9.05689C12.0707 8.78862 12.1294 8.50639 12.1425 8.22039C12.1435 7.88896 12.2044 7.56033 12.3225 7.24977C12.4822 6.85401 12.7901 6.53299 13.1832 6.35238C13.4101 6.24271 13.6586 6.18289 13.9114 6.1771C14.1643 6.17131 14.4154 6.21969 14.6472 6.31885C14.8702 6.40769 15.0796 6.52648 15.2693 6.6718C15.43 6.50662 15.6238 6.3757 15.8384 6.28723C16.0531 6.19875 16.2841 6.15463 16.517 6.15761C16.7498 6.16059 16.9796 6.21062 17.1918 6.30455C17.4041 6.39849 17.5943 6.53433 17.7506 6.70357C18.6111 7.42736 19.3505 8.27891 19.9419 9.22719C20.5721 10.1272 21.1411 10.9346 21.4725 10.9417C21.5454 10.9417 21.6282 10.9417 21.7056 10.9417C22.786 10.9081 23.3712 10.8905 23.3712 13.3965C23.3712 15.1948 22.4349 15.703 21.7362 15.831C21.5121 17.2336 20.8939 18.5474 19.9509 19.6252C19.7872 19.8065 19.6125 19.978 19.4278 20.1388V20.1467C19.3839 20.6481 19.3936 21.1526 19.4566 21.652C19.7075 21.951 20.0128 22.2017 20.357 22.3915C20.9988 22.7913 21.673 23.1389 22.3728 23.4309L22.4079 23.4459C22.5582 23.505 22.732 23.5695 22.9211 23.6374C23.084 23.6956 23.2812 23.7618 23.4892 23.8324L23.5414 23.8518C30.5242 26.1513 29.9912 31.3318 29.9903 31.3468C29.9736 31.534 29.8817 31.7071 29.7348 31.8279C29.5879 31.9487 29.3981 32.0073 29.2071 31.9909C29.016 31.9746 28.8395 31.8845 28.7162 31.7405C28.593 31.5965 28.5331 31.4105 28.5498 31.2233C28.5498 31.2118 28.9739 27.1316 23.0732 25.1939L23.0264 25.1798C22.8409 25.118 22.6519 25.0528 22.4286 24.9742C22.2593 24.9133 22.0748 24.8445 21.8623 24.7598L21.8236 24.7448C21.0406 24.4186 20.2863 24.0299 19.5683 23.5827C19.0324 23.2791 18.5681 22.8677 18.2061 22.3756C18.0279 21.9619 17.9455 21.5147 17.9648 21.0661C17.3455 21.3338 16.6755 21.4704 15.9986 21.4669C15.3217 21.4634 14.6532 21.3199 14.0367 21.0458L14.0358 21.0511ZM21.2627 21.1597C21.0801 21.0999 20.9293 20.9715 20.8434 20.8027C20.7574 20.6339 20.7434 20.4386 20.8044 20.2596C20.8654 20.0807 20.9965 19.9329 21.1687 19.8487C21.3409 19.7644 21.5402 19.7507 21.7227 19.8105C21.7335 19.8105 25.2898 21.0203 25.2538 18.3916V18.3528C25.3897 15.3236 24.3481 14.4862 24.3445 14.4836C24.2493 14.4066 24.1756 14.3072 24.1304 14.1947C24.0852 14.0821 24.0699 13.9602 24.0861 13.8403C24.0861 13.8262 24.7514 9.15307 21.9343 7.50742C21.8856 7.4794 21.8405 7.44562 21.8002 7.40683C21.4117 6.97033 21.1067 6.46876 20.8999 5.92619C20.2129 4.44379 19.2604 2.39665 15.2945 4.26378C15.1253 4.3489 14.9288 4.36569 14.7471 4.31054C12.1668 3.5164 11.5348 4.97057 11.0081 6.17679C10.8003 6.76779 10.4767 7.31332 10.0556 7.78273C10.015 7.82099 9.96994 7.85445 9.92141 7.88244C7.12413 9.51749 7.9164 13.9171 7.9182 13.9294C7.94442 14.0818 7.91944 14.2385 7.84703 14.3758C7.77462 14.5131 7.65869 14.6237 7.51666 14.6909C7.51666 14.6909 6.58394 15.1259 6.70188 17.991C6.70544 18.0185 6.70724 18.0462 6.70728 18.074C6.70728 21.1473 10.4355 19.7867 10.4463 19.7823C10.5359 19.7501 10.6311 19.7355 10.7265 19.7393C10.8219 19.7432 10.9155 19.7654 11.0022 19.8047C11.0888 19.844 11.1666 19.8997 11.2313 19.9685C11.2959 20.0374 11.3461 20.118 11.379 20.2058C11.4119 20.2936 11.4268 20.387 11.4228 20.4804C11.4189 20.5739 11.3962 20.6657 11.3561 20.7506C11.316 20.8355 11.2592 20.9118 11.189 20.9752C11.1188 21.0386 11.0365 21.0878 10.9469 21.12C10.9307 21.1253 5.25057 23.2006 5.25057 18.074V18.044C5.14793 15.5045 5.9105 14.2894 6.42908 13.7618C6.29223 12.4858 6.12478 8.52658 9.09042 6.71504C9.33476 6.3774 9.53103 6.0087 9.67382 5.61912C10.4175 3.91612 11.3061 1.88046 14.9065 2.87138C20.0112 0.564824 21.2987 3.33286 22.2269 5.34205C22.3677 5.69459 22.5489 6.03029 22.7671 6.34268C25.7922 8.19568 25.6607 12.4841 25.5581 13.7018C26.0136 14.278 26.8248 15.7004 26.7015 18.4155C26.7339 23.0242 21.2762 21.165 21.2609 21.1606L21.2627 21.1597ZM18.8624 18.689C19.7389 17.6719 20.2676 16.4108 20.3741 15.0836L20.3786 15.0421C20.4081 14.8556 20.5119 14.6883 20.6672 14.5768C20.8225 14.4653 21.0166 14.4187 21.2069 14.4474C21.2069 14.4474 21.9136 14.5771 21.9136 13.4C21.9136 12.3614 21.8551 12.3623 21.7479 12.3658C21.6579 12.3658 21.5589 12.3711 21.4427 12.3658C20.3624 12.342 19.6007 11.254 18.7472 10.039C18.2348 9.21393 17.5973 8.47009 16.8565 7.83302C16.8271 7.81168 16.7994 7.78807 16.7737 7.76243C16.3821 7.38389 15.9031 8.09068 15.9013 8.09333C15.8604 8.15395 15.8099 8.20785 15.7518 8.25304C15.6772 8.31173 15.5914 8.35537 15.4994 8.38147C15.4075 8.40757 15.3112 8.4156 15.2161 8.4051C15.1209 8.39461 15.0289 8.36579 14.9451 8.32031C14.8614 8.27483 14.7877 8.21359 14.7282 8.14009C14.5648 7.92692 14.351 7.75584 14.1052 7.64155C14.0619 7.62013 14.0144 7.60803 13.966 7.60605C13.9175 7.60407 13.8692 7.61226 13.8243 7.63007C13.7521 7.66185 13.6948 7.71922 13.664 7.79067C13.6121 7.94674 13.5866 8.11007 13.5884 8.27421C13.5688 8.70757 13.4807 9.13531 13.3273 9.5422C13.1885 9.90658 13.0142 10.257 12.8069 10.5887L12.7754 10.6425C12.5017 11.0721 12.1728 11.4653 11.7968 11.8126C11.4995 12.1024 11.1174 12.2942 10.7038 12.3614C10.6654 12.3673 10.6265 12.3702 10.5876 12.3702C10.5327 12.3702 10.4157 12.3649 10.3058 12.3597C10.2671 12.3597 10.2293 12.3597 10.1366 12.3597C10.1366 12.3597 10.1321 12.462 10.1321 13.4009C10.1321 14.4827 10.7263 14.4597 10.8253 14.4509L10.8811 14.4438C10.9761 14.4344 11.072 14.4435 11.1633 14.4706C11.2546 14.4978 11.3395 14.5425 11.4131 14.6021C11.4866 14.6617 11.5474 14.735 11.5918 14.8178C11.6361 14.9007 11.6633 14.9913 11.6716 15.0845C11.7777 16.4116 12.3061 17.6727 13.1823 18.6899C13.5292 19.1022 13.9622 19.4369 14.4522 19.6713C14.9422 19.9057 15.4778 20.0344 16.0228 20.0488C16.5679 20.0345 17.1036 19.9059 17.5936 19.6715C18.0836 19.437 18.5166 19.1023 18.8633 18.6899L18.8624 18.689Z" fill="#785549"/>
<path d="M14.0358 21.0511C14.0562 21.5065 13.9735 21.9606 13.7937 22.3809C13.4303 22.8735 12.9645 23.2849 12.427 23.588C11.7104 24.0347 10.9576 24.4231 10.1762 24.7492L10.1375 24.7642C9.92591 24.8525 9.74044 24.9186 9.57118 24.9786C9.3488 25.0572 9.15884 25.1225 8.97337 25.1842L8.92656 25.1983C3.02589 27.1396 3.44904 31.2162 3.44994 31.2277C3.45821 31.3204 3.44778 31.4138 3.41923 31.5025C3.39068 31.5913 3.34457 31.6736 3.28354 31.7449C3.22251 31.8162 3.14776 31.875 3.06354 31.918C2.97932 31.9609 2.88729 31.9872 2.79271 31.9953C2.69812 32.0035 2.60283 31.9932 2.51228 31.9653C2.42173 31.9373 2.33769 31.8921 2.26495 31.8323C2.19222 31.7725 2.13222 31.6992 2.08838 31.6166C2.04453 31.5341 2.01771 31.4439 2.00943 31.3512C2.00943 31.3362 1.47465 26.1566 8.45839 23.8562L8.51061 23.8368C8.72038 23.7662 8.91575 23.7001 9.07871 23.6418C9.26868 23.573 9.43884 23.5095 9.59189 23.4503L9.627 23.4353C10.3268 23.1433 11.0009 22.7957 11.6428 22.3959C11.987 22.2061 12.2923 21.9554 12.5431 21.6565C12.6062 21.157 12.6159 20.6525 12.5719 20.1511V20.1405V20.0973C12.406 19.9482 12.2479 19.791 12.0984 19.6261C11.1558 18.548 10.5377 17.2344 10.313 15.8318C9.6144 15.7039 8.67897 15.1965 8.67897 13.3973C8.67897 11.1728 9.18765 10.9267 10.1393 10.9267L10.3698 10.9355C10.4175 10.9355 10.4679 10.9399 10.5867 10.9399C10.6735 10.8845 10.7544 10.8206 10.828 10.7493C11.1041 10.4924 11.3461 10.2025 11.5483 9.88633L11.5717 9.85103C11.7298 9.59945 11.8627 9.3335 11.9687 9.05689C12.0707 8.78862 12.1294 8.50639 12.1425 8.22039C12.1435 7.88896 12.2044 7.56033 12.3225 7.24977C12.4822 6.85401 12.7901 6.53299 13.1832 6.35238C13.4101 6.24271 13.6586 6.18289 13.9114 6.1771C14.1643 6.17131 14.4154 6.21969 14.6472 6.31885C14.8702 6.40769 15.0796 6.52648 15.2693 6.6718C15.43 6.50662 15.6238 6.3757 15.8384 6.28723C16.0531 6.19875 16.2841 6.15463 16.517 6.15761C16.7498 6.16059 16.9796 6.21062 17.1918 6.30455C17.4041 6.39849 17.5943 6.53433 17.7506 6.70357C18.6111 7.42736 19.3505 8.27891 19.9419 9.22719C20.5721 10.1272 21.1411 10.9346 21.4725 10.9417C21.5454 10.9417 21.6282 10.9417 21.7056 10.9417C22.786 10.9081 23.3712 10.8905 23.3712 13.3965C23.3712 15.1948 22.4349 15.703 21.7362 15.831C21.5121 17.2336 20.8939 18.5474 19.9509 19.6252C19.7872 19.8065 19.6125 19.978 19.4278 20.1388V20.1467C19.3839 20.6481 19.3936 21.1526 19.4566 21.652C19.7075 21.951 20.0128 22.2017 20.357 22.3915C20.9988 22.7913 21.673 23.1389 22.3728 23.4309L22.4079 23.4459C22.5582 23.505 22.732 23.5695 22.9211 23.6374C23.084 23.6956 23.2812 23.7618 23.4892 23.8324L23.5414 23.8518C30.5242 26.1513 29.9912 31.3318 29.9903 31.3468C29.9736 31.534 29.8817 31.7071 29.7348 31.8279C29.5879 31.9487 29.3981 32.0073 29.2071 31.9909C29.016 31.9746 28.8395 31.8845 28.7162 31.7405C28.593 31.5965 28.5331 31.4105 28.5498 31.2233C28.5498 31.2118 28.9739 27.1316 23.0732 25.1939L23.0264 25.1798C22.8409 25.118 22.6519 25.0528 22.4286 24.9742C22.2593 24.9133 22.0748 24.8445 21.8623 24.7598L21.8236 24.7448C21.0406 24.4186 20.2863 24.0299 19.5683 23.5827C19.0324 23.2791 18.5681 22.8677 18.2061 22.3756C18.0279 21.9619 17.9455 21.5147 17.9648 21.0661C17.3455 21.3338 16.6755 21.4704 15.9986 21.4669C15.3217 21.4634 14.6532 21.3199 14.0367 21.0458L14.0358 21.0511ZM21.2627 21.1597C21.0801 21.0999 20.9293 20.9715 20.8434 20.8027C20.7574 20.6339 20.7434 20.4386 20.8044 20.2596C20.8654 20.0807 20.9965 19.9329 21.1687 19.8487C21.3409 19.7644 21.5402 19.7507 21.7227 19.8105C21.7335 19.8105 25.2898 21.0203 25.2538 18.3916V18.3528C25.3897 15.3236 24.3481 14.4862 24.3445 14.4836C24.2493 14.4066 24.1756 14.3072 24.1304 14.1947C24.0852 14.0821 24.0699 13.9602 24.0861 13.8403C24.0861 13.8262 24.7514 9.15307 21.9343 7.50742C21.8856 7.4794 21.8405 7.44562 21.8002 7.40683C21.4117 6.97033 21.1067 6.46876 20.8999 5.92619C20.2129 4.44379 19.2604 2.39665 15.2945 4.26378C15.1253 4.3489 14.9288 4.36569 14.7471 4.31054C12.1668 3.5164 11.5348 4.97057 11.0081 6.17679C10.8003 6.76779 10.4767 7.31332 10.0556 7.78273C10.015 7.82099 9.96994 7.85445 9.92141 7.88244C7.12413 9.51749 7.9164 13.9171 7.9182 13.9294C7.94442 14.0818 7.91944 14.2385 7.84703 14.3758C7.77462 14.5131 7.65869 14.6237 7.51666 14.6909C7.51666 14.6909 6.58394 15.1259 6.70188 17.991C6.70544 18.0185 6.70724 18.0462 6.70728 18.074C6.70728 21.1473 10.4355 19.7867 10.4463 19.7823C10.5359 19.7501 10.6311 19.7355 10.7265 19.7393C10.8219 19.7432 10.9155 19.7654 11.0022 19.8047C11.0888 19.844 11.1666 19.8997 11.2313 19.9685C11.2959 20.0374 11.3461 20.118 11.379 20.2058C11.4119 20.2936 11.4268 20.387 11.4228 20.4804C11.4189 20.5739 11.3962 20.6657 11.3561 20.7506C11.316 20.8355 11.2592 20.9118 11.189 20.9752C11.1188 21.0386 11.0365 21.0878 10.9469 21.12C10.9307 21.1253 5.25057 23.2006 5.25057 18.074V18.044C5.14793 15.5045 5.9105 14.2894 6.42908 13.7618C6.29223 12.4858 6.12478 8.52658 9.09042 6.71504C9.33476 6.3774 9.53103 6.0087 9.67382 5.61912C10.4175 3.91612 11.3061 1.88046 14.9065 2.87138C20.0112 0.564824 21.2987 3.33286 22.2269 5.34205C22.3677 5.69459 22.5489 6.03029 22.7671 6.34268C25.7922 8.19568 25.6607 12.4841 25.5581 13.7018C26.0136 14.278 26.8248 15.7004 26.7015 18.4155C26.7339 23.0242 21.2762 21.165 21.2609 21.1606L21.2627 21.1597ZM18.8624 18.689C19.7389 17.6719 20.2676 16.4108 20.3741 15.0836L20.3786 15.0421C20.4081 14.8556 20.5119 14.6883 20.6672 14.5768C20.8225 14.4653 21.0166 14.4187 21.2069 14.4474C21.2069 14.4474 21.9136 14.5771 21.9136 13.4C21.9136 12.3614 21.8551 12.3623 21.7479 12.3658C21.6579 12.3658 21.5589 12.3711 21.4427 12.3658C20.3624 12.342 19.6007 11.254 18.7472 10.039C18.2348 9.21393 17.5973 8.47009 16.8565 7.83302C16.8271 7.81168 16.7994 7.78807 16.7737 7.76243C16.3821 7.38389 15.9031 8.09068 15.9013 8.09333C15.8604 8.15395 15.8099 8.20785 15.7518 8.25304C15.6772 8.31173 15.5914 8.35537 15.4994 8.38147C15.4075 8.40757 15.3112 8.4156 15.2161 8.4051C15.1209 8.39461 15.0289 8.36579 14.9451 8.32031C14.8614 8.27483 14.7877 8.21359 14.7282 8.14009C14.5648 7.92692 14.351 7.75584 14.1052 7.64155C14.0619 7.62013 14.0144 7.60803 13.966 7.60605C13.9175 7.60407 13.8692 7.61226 13.8243 7.63007C13.7521 7.66185 13.6948 7.71922 13.664 7.79067C13.6121 7.94674 13.5866 8.11007 13.5884 8.27421C13.5688 8.70757 13.4807 9.13531 13.3273 9.5422C13.1885 9.90658 13.0142 10.257 12.8069 10.5887L12.7754 10.6425C12.5017 11.0721 12.1728 11.4653 11.7968 11.8126C11.4995 12.1024 11.1174 12.2942 10.7038 12.3614C10.6654 12.3673 10.6265 12.3702 10.5876 12.3702C10.5327 12.3702 10.4157 12.3649 10.3058 12.3597C10.2671 12.3597 10.2293 12.3597 10.1366 12.3597C10.1366 12.3597 10.1321 12.462 10.1321 13.4009C10.1321 14.4827 10.7263 14.4597 10.8253 14.4509L10.8811 14.4438C10.9761 14.4344 11.072 14.4435 11.1633 14.4706C11.2546 14.4978 11.3395 14.5425 11.4131 14.6021C11.4866 14.6617 11.5474 14.735 11.5918 14.8178C11.6361 14.9007 11.6633 14.9913 11.6716 15.0845C11.7777 16.4116 12.3061 17.6727 13.1823 18.6899C13.5292 19.1022 13.9622 19.4369 14.4522 19.6713C14.9422 19.9057 15.4778 20.0344 16.0228 20.0488C16.5679 20.0345 17.1036 19.9059 17.5936 19.6715C18.0836 19.437 18.5166 19.1023 18.8633 18.6899L18.8624 18.689Z" fill="#7E5445"/>
</svg>
