<svg width="40" height="40" viewBox="0 0 40 40" fill="none" xmlns="http://www.w3.org/2000/svg">
<path d="M20 40C31.0457 40 40 31.0457 40 20C40 8.9543 31.0457 0 20 0C8.9543 0 0 8.9543 0 20C0 31.0457 8.9543 40 20 40Z" fill="white"/>
<path d="M28.5341 11.5027C26.3106 9.23243 23.2371 8 20.0981 8C13.4278 8 8.0654 13.3838 8.13079 19.9351C8.13079 22.0108 8.71935 24.0216 9.70027 25.8378L8 32L14.3433 30.3784C16.109 31.3514 18.0708 31.8054 20.0327 31.8054C26.6376 31.8054 32 26.4216 32 19.8703C32 16.6919 30.7575 13.7081 28.5341 11.5027ZM20.0981 29.7946C18.3324 29.7946 16.5668 29.3405 15.0627 28.4324L14.6703 28.2378L10.8774 29.2108L11.8583 25.5135L11.5967 25.1243C8.71935 20.5189 10.0926 14.4216 14.8011 11.5676C19.5095 8.71351 25.5913 10.0757 28.4687 14.7459C31.346 19.4162 29.9728 25.4486 25.2643 28.3027C23.7602 29.2757 21.9292 29.7946 20.0981 29.7946ZM25.8529 22.5946L25.1335 22.2703C25.1335 22.2703 24.0872 21.8162 23.4332 21.4919C23.3678 21.4919 23.3025 21.427 23.2371 21.427C23.0409 21.427 22.9101 21.4919 22.7793 21.5568C22.7793 21.5568 22.7139 21.6216 21.7984 22.6595C21.733 22.7892 21.6022 22.8541 21.4714 22.8541H21.406C21.3406 22.8541 21.2098 22.7892 21.1444 22.7243L20.8174 22.5946C20.0981 22.2703 19.4441 21.8811 18.921 21.3622C18.7902 21.2324 18.594 21.1027 18.4632 20.973C18.0054 20.5189 17.5477 20 17.2207 19.4162L17.1553 19.2865C17.0899 19.2216 17.0899 19.1568 17.0245 19.027C17.0245 18.8973 17.0245 18.7676 17.0899 18.7027C17.0899 18.7027 17.3515 18.3784 17.5477 18.1838C17.6785 18.0541 17.7439 17.8595 17.8747 17.7297C18.0054 17.5351 18.0708 17.2757 18.0054 17.0811C17.9401 16.7568 17.1553 15.0054 16.9591 14.6162C16.8283 14.4216 16.6975 14.3568 16.5014 14.2919H16.3052C16.1744 14.2919 15.9782 14.2919 15.782 14.2919C15.6512 14.2919 15.5204 14.3568 15.3896 14.3568L15.3243 14.4216C15.1935 14.4865 15.0627 14.6162 14.9319 14.6811C14.8011 14.8108 14.7357 14.9405 14.6049 15.0703C14.1471 15.6541 13.8856 16.3676 13.8856 17.0811C13.8856 17.6 14.0163 18.1189 14.2125 18.573L14.2779 18.7676C14.8665 20 15.6512 21.1027 16.6975 22.0757L16.9591 22.3351C17.1553 22.5297 17.3515 22.6595 17.4823 22.8541C18.8556 24.0216 20.4251 24.8649 22.1907 25.3189C22.3869 25.3838 22.6485 25.3838 22.8447 25.4486C23.0409 25.4486 23.3025 25.4486 23.4986 25.4486C23.8256 25.4486 24.218 25.3189 24.4796 25.1892C24.6757 25.0595 24.8065 25.0595 24.9373 24.9297L25.0681 24.8C25.1989 24.6703 25.3297 24.6054 25.4605 24.4757C25.5913 24.3459 25.7221 24.2162 25.7875 24.0865C25.9183 23.827 25.9837 23.5027 26.049 23.1784C26.049 23.0486 26.049 22.8541 26.049 22.7243C26.049 22.7243 25.9837 22.6595 25.8529 22.5946Z" fill="#323233"/>
</svg>
